<svg width="1614" height="517" viewBox="0 0 1614 517" fill="none" xmlns="http://www.w3.org/2000/svg">
<rect x="1215.4" y="129.4" width="287.2" height="262.2" rx="9.6" fill="white"/>
<rect x="1215.4" y="129.4" width="287.2" height="262.2" rx="9.6" stroke="black" stroke-width="0.8"/>
<rect x="1215.4" y="129.4" width="287.2" height="12" rx="1.6" stroke="black" stroke-width="0.8"/>
<rect x="1215.1" y="154.1" width="287.4" height="17.2" rx="0.7" stroke="black" stroke-width="0.2"/>
<rect x="1215.1" y="141.3" width="287.4" height="12.6" rx="0.7" stroke="black" stroke-width="0.2"/>
<circle cx="1476.3" cy="147.5" r="2.7" fill="#D9D9D9" stroke="black" stroke-width="0.8"/>
<circle cx="1484.9" cy="147.5" r="3.1" fill="#D9D9D9"/>
<circle cx="1484.9" cy="147.5" r="3.1" stroke="black"/>
<circle cx="1493.5" cy="147.5" r="3.1" fill="#D9D9D9"/>
<circle cx="1493.5" cy="147.5" r="3.1" stroke="black"/>
<rect x="1368.2" y="159.2" width="27.2" height="7.2" rx="1.6" stroke="#D9D9D9" stroke-width="0.8"/>
<rect x="1372.6" y="162" width="18.4" height="1.6" rx="0.8" fill="#D9D9D9"/>
<rect x="1401.8" y="159.2" width="27.2" height="7.2" rx="1.6" stroke="black" stroke-width="0.8"/>
<rect x="1406.2" y="162" width="18.4" height="1.6" rx="0.8" fill="black"/>
<rect x="1435.4" y="159.2" width="27.2" height="7.2" rx="1.6" stroke="#D9D9D9" stroke-width="0.8"/>
<rect x="1439.8" y="162" width="18.4" height="1.6" rx="0.8" fill="#D9D9D9"/>
<rect x="1469" y="159.2" width="27.2" height="7.2" rx="1.6" stroke="#D9D9D9" stroke-width="0.8"/>
<rect x="1473.4" y="162" width="18.4" height="1.6" rx="0.8" fill="#D9D9D9"/>
<circle cx="1232.4" cy="162.4" r="6.4" fill="#D9D9D9"/>
<rect x="1257" y="205.2" width="50.6" height="4" rx="0.8" fill="#D9D9D9"/>
<rect x="1330.4" y="205.2" width="123.2" height="4" rx="0.8" fill="#D9D9D9"/>
<rect x="1257" y="221.8" width="50.6" height="4" rx="0.8" fill="#D9D9D9"/>
<rect x="1257" y="295.4" width="50.6" height="4" rx="0.8" fill="#D9D9D9"/>
<line x1="1254.4" y1="216.9" x2="1466.6" y2="216.9" stroke="black" stroke-width="0.2"/>
<line x1="1254.4" y1="291.3" x2="1466.6" y2="291.3" stroke="black" stroke-width="0.2"/>
<rect x="1257" y="197.2" width="29.6" height="4" rx="0.8" fill="#D9D9D9"/>
<rect x="1330.4" y="197.2" width="8" height="4" rx="2" fill="#F5F5F5"/>
<rect x="1340.8" y="197.2" width="8" height="4" rx="2" fill="#F5F5F5"/>
<rect x="1351.2" y="197.2" width="8" height="4" rx="2" fill="#F5F5F5"/>
<rect x="1361.6" y="197.2" width="8" height="4" rx="2" fill="#F5F5F5"/>
<path d="M1463 200.4L1461 198L1459 200.4" stroke="black" stroke-width="0.2"/>
<rect x="1223.2" y="176.4" width="19.2" height="4" rx="0.8" fill="#D9D9D9"/>
<rect x="1256" y="176.4" width="16.8" height="4" rx="2" fill="#D9D9D9"/>
<rect x="1275.2" y="176.4" width="16.8" height="4" rx="2" fill="#80CAFF"/>
<rect x="1294.4" y="176.4" width="16.8" height="4" rx="2" fill="#D9D9D9"/>
<rect x="1313.6" y="176.4" width="16.8" height="4" rx="2" fill="#D9D9D9"/>
<rect x="1467.4" y="176.4" width="8.8" height="4" rx="2" fill="#D9D9D9"/>
<rect x="1480.2" y="176.4" width="8.8" height="4" rx="2" fill="#D9D9D9"/>
<line x1="1493.07" y1="176.53" x2="1496.67" y2="180.13" stroke="black" stroke-width="0.2"/>
<line y1="-0.1" x2="5.09117" y2="-0.1" transform="matrix(-0.707107 0.707107 0.707107 0.707107 1496.6 176.601)" stroke="black" stroke-width="0.2"/>
<circle cx="1469.4" cy="177" r="1.2" fill="#DC2626"/>
<rect x="1245.4" y="157.8" width="54.6" height="4" rx="2" fill="#D9D9D9"/>
<rect x="1245.4" y="163.4" width="36.2" height="4" rx="2" fill="#D9D9D9"/>
<rect x="1330.8" y="227" width="60" height="7.2" rx="0.4" stroke="#D9D9D9" stroke-width="0.8"/>
<rect x="1334" y="229.8" width="29.4" height="1.6" rx="0.4" fill="#D9D9D9"/>
<rect x="1330.4" y="223.8" width="18.4" height="1.6" rx="0.4" fill="#D9D9D9"/>
<rect x="1330.8" y="300.6" width="60" height="7.2" rx="0.4" stroke="#D9D9D9" stroke-width="0.8"/>
<rect x="1334" y="303.4" width="29.4" height="1.6" rx="0.4" fill="#D9D9D9"/>
<rect x="1330.4" y="297.4" width="18.4" height="1.6" rx="0.4" fill="#D9D9D9"/>
<rect x="1330.8" y="242.2" width="60" height="7.2" rx="0.4" stroke="#D9D9D9" stroke-width="0.8"/>
<rect x="1334" y="245" width="29.4" height="1.6" rx="0.4" fill="#D9D9D9"/>
<rect x="1330.4" y="239" width="18.4" height="1.6" rx="0.4" fill="#D9D9D9"/>
<rect x="1330.8" y="315.8" width="60" height="7.2" rx="0.4" stroke="#D9D9D9" stroke-width="0.8"/>
<rect x="1334" y="318.601" width="29.4" height="1.6" rx="0.4" fill="#D9D9D9"/>
<rect x="1330.4" y="312.601" width="18.4" height="1.6" rx="0.4" fill="#D9D9D9"/>
<rect x="1330.8" y="257.4" width="60" height="7.2" rx="0.4" stroke="#D9D9D9" stroke-width="0.8"/>
<rect x="1334" y="260.2" width="29.4" height="1.6" rx="0.4" fill="#D9D9D9"/>
<rect x="1330.4" y="254.2" width="18.4" height="1.6" rx="0.4" fill="#D9D9D9"/>
<rect x="1330.8" y="272.6" width="126.4" height="7.2" rx="0.4" stroke="#D9D9D9" stroke-width="0.8"/>
<rect x="1334" y="275.4" width="29.4" height="1.6" rx="0.4" fill="#D9D9D9"/>
<rect x="1330.4" y="269.4" width="18.4" height="1.6" rx="0.4" fill="#D9D9D9"/>
<rect x="1330.8" y="331" width="126.4" height="7.2" rx="0.4" stroke="#D9D9D9" stroke-width="0.8"/>
<rect x="1330.4" y="340.6" width="29.4" height="1.6" rx="0.4" fill="#D9D9D9"/>
<rect x="1330.4" y="327.8" width="18.4" height="1.6" rx="0.4" fill="#D9D9D9"/>
<rect x="1330.8" y="349.8" width="126.4" height="7.2" rx="0.4" stroke="#D9D9D9" stroke-width="0.8"/>
<rect x="1330.4" y="359.4" width="29.4" height="1.6" rx="0.4" fill="#D9D9D9"/>
<rect x="1330.4" y="346.601" width="18.4" height="1.6" rx="0.4" fill="#D9D9D9"/>
<rect x="1397.2" y="227" width="60" height="7.2" rx="0.4" stroke="#D9D9D9" stroke-width="0.8"/>
<rect x="1400.4" y="229.8" width="29.4" height="1.6" rx="0.4" fill="#D9D9D9"/>
<rect x="1396.8" y="223.8" width="18.4" height="1.6" rx="0.4" fill="#D9D9D9"/>
<rect x="1397.2" y="300.6" width="60" height="7.2" rx="0.4" stroke="#D9D9D9" stroke-width="0.8"/>
<rect x="1400.4" y="303.4" width="29.4" height="1.6" rx="0.4" fill="#D9D9D9"/>
<rect x="1396.8" y="297.4" width="18.4" height="1.6" rx="0.4" fill="#D9D9D9"/>
<rect x="1397.2" y="242.2" width="60" height="7.2" rx="0.4" stroke="#D9D9D9" stroke-width="0.8"/>
<rect x="1400.4" y="245" width="29.4" height="1.6" rx="0.4" fill="#D9D9D9"/>
<rect x="1396.8" y="239" width="18.4" height="1.6" rx="0.4" fill="#D9D9D9"/>
<rect x="1397.2" y="315.8" width="60" height="7.2" rx="0.4" stroke="#D9D9D9" stroke-width="0.8"/>
<rect x="1400.4" y="318.601" width="29.4" height="1.6" rx="0.4" fill="#D9D9D9"/>
<rect x="1396.8" y="312.601" width="18.4" height="1.6" rx="0.4" fill="#D9D9D9"/>
<rect x="1397.2" y="257.4" width="60" height="7.2" rx="0.4" stroke="#D9D9D9" stroke-width="0.8"/>
<rect x="1400.4" y="260.2" width="29.4" height="1.6" rx="0.4" fill="#D9D9D9"/>
<rect x="1396.8" y="254.2" width="18.4" height="1.6" rx="0.4" fill="#D9D9D9"/>
<g filter="url(#filter0_d_481_16677)">
<rect x="1330" y="368.2" width="28" height="8" rx="2" fill="#80CAFF"/>
<rect x="1330.4" y="368.6" width="27.2" height="7.2" rx="1.6" stroke="black" stroke-width="0.8"/>
</g>
<rect x="1361.2" y="368.2" width="28" height="8" rx="2" fill="#D9D9D9"/>
<rect x="843.4" y="129.4" width="287.2" height="262.2" rx="9.6" fill="white"/>
<rect x="843.4" y="129.4" width="287.2" height="262.2" rx="9.6" stroke="black" stroke-width="0.8"/>
<rect x="843.4" y="129.4" width="287.2" height="12" rx="1.6" stroke="black" stroke-width="0.8"/>
<rect x="843.1" y="154.1" width="287.4" height="17.2" rx="0.7" stroke="black" stroke-width="0.2"/>
<rect x="843.1" y="141.3" width="287.4" height="12.6" rx="0.7" stroke="black" stroke-width="0.2"/>
<circle cx="1104.3" cy="147.5" r="2.7" fill="#D9D9D9" stroke="black" stroke-width="0.8"/>
<circle cx="1112.9" cy="147.5" r="3.1" fill="#D9D9D9"/>
<circle cx="1112.9" cy="147.5" r="3.1" stroke="black"/>
<circle cx="1121.5" cy="147.5" r="3.1" fill="#D9D9D9"/>
<circle cx="1121.5" cy="147.5" r="3.1" stroke="black"/>
<rect x="996.2" y="159.2" width="27.2" height="7.2" rx="1.6" stroke="#D9D9D9" stroke-width="0.8"/>
<rect x="1000.6" y="162" width="18.4" height="1.6" rx="0.8" fill="#D9D9D9"/>
<rect x="1029.8" y="159.2" width="27.2" height="7.2" rx="1.6" stroke="black" stroke-width="0.8"/>
<rect x="1034.2" y="162" width="18.4" height="1.6" rx="0.8" fill="black"/>
<rect x="1063.4" y="159.2" width="27.2" height="7.2" rx="1.6" stroke="#D9D9D9" stroke-width="0.8"/>
<rect x="1067.8" y="162" width="18.4" height="1.6" rx="0.8" fill="#D9D9D9"/>
<rect x="1097" y="159.2" width="27.2" height="7.2" rx="1.6" stroke="#D9D9D9" stroke-width="0.8"/>
<rect x="1101.4" y="162" width="18.4" height="1.6" rx="0.8" fill="#D9D9D9"/>
<circle cx="860.4" cy="162.4" r="6.4" fill="#D9D9D9"/>
<rect x="885" y="205.2" width="50.6" height="4" rx="0.8" fill="#D9D9D9"/>
<rect x="958.4" y="205.2" width="123.2" height="4" rx="0.8" fill="#D9D9D9"/>
<line x1="882.4" y1="216.9" x2="1094.6" y2="216.9" stroke="black" stroke-width="0.2"/>
<line x1="882.4" y1="291.3" x2="1094.6" y2="291.3" stroke="black" stroke-width="0.2"/>
<line x1="882.4" y1="318.9" x2="1094.6" y2="318.9" stroke="black" stroke-width="0.2"/>
<rect x="885" y="197.2" width="29.6" height="4" rx="0.8" fill="#D9D9D9"/>
<rect x="958.4" y="197.2" width="8" height="4" rx="2" fill="#F5F5F5"/>
<rect x="968.8" y="197.2" width="8" height="4" rx="2" fill="#F5F5F5"/>
<rect x="979.2" y="197.2" width="8" height="4" rx="2" fill="#F5F5F5"/>
<rect x="989.6" y="197.2" width="8" height="4" rx="2" fill="#F5F5F5"/>
<path d="M1091 200.4L1089 198L1087 200.4" stroke="black" stroke-width="0.2"/>
<rect x="851.2" y="176.4" width="19.2" height="4" rx="0.8" fill="#D9D9D9"/>
<rect x="884" y="176.4" width="16.8" height="4" rx="2" fill="#D9D9D9"/>
<rect x="903.2" y="176.4" width="16.8" height="4" rx="2" fill="#80CAFF"/>
<rect x="922.4" y="176.4" width="16.8" height="4" rx="2" fill="#D9D9D9"/>
<rect x="941.6" y="176.4" width="16.8" height="4" rx="2" fill="#D9D9D9"/>
<rect x="1095.4" y="176.4" width="8.8" height="4" rx="2" fill="#D9D9D9"/>
<rect x="1108.2" y="176.4" width="8.8" height="4" rx="2" fill="#D9D9D9"/>
<line x1="1121.07" y1="176.53" x2="1124.67" y2="180.13" stroke="black" stroke-width="0.2"/>
<line y1="-0.1" x2="5.09117" y2="-0.1" transform="matrix(-0.707107 0.707107 0.707107 0.707107 1124.6 176.601)" stroke="black" stroke-width="0.2"/>
<circle cx="1097.4" cy="177" r="1.2" fill="#DC2626"/>
<rect x="873.4" y="157.8" width="54.6" height="4" rx="2" fill="#D9D9D9"/>
<rect x="873.4" y="163.4" width="36.2" height="4" rx="2" fill="#D9D9D9"/>
<g filter="url(#filter1_d_481_16677)">
<rect x="958" y="368.2" width="28" height="8" rx="2" fill="#80CAFF"/>
<rect x="958.4" y="368.6" width="27.2" height="7.2" rx="1.6" stroke="black" stroke-width="0.8"/>
</g>
<rect x="989.2" y="368.2" width="28" height="8" rx="2" fill="#D9D9D9"/>
<g clip-path="url(#clip0_481_16677)">
<rect x="471" y="135" width="288" height="257" rx="10" fill="white"/>
<rect x="471.4" y="135.4" width="287.2" height="12" rx="1.6" stroke="black" stroke-width="0.8"/>
<rect x="527.1" y="160.1" width="231.8" height="33.8" rx="0.7" stroke="black" stroke-width="0.2"/>
<rect x="526.7" y="147.3" width="231.8" height="12.6" rx="0.7" stroke="black" stroke-width="0.2"/>
<rect x="526.7" y="377.7" width="231.8" height="14" rx="0.7" stroke="black" stroke-width="0.2"/>
<rect x="533" y="383" width="14.6" height="4" rx="0.8" fill="#D9D9D9"/>
<rect x="730.8" y="383" width="5.6" height="4" rx="0.8" fill="#D9D9D9"/>
<rect x="738.8" y="383" width="5.6" height="4" rx="0.8" fill="#D9D9D9"/>
<rect x="746.8" y="383" width="5.6" height="4" rx="0.8" fill="#D9D9D9"/>
<circle cx="732.3" cy="153.5" r="2.7" fill="#D9D9D9" stroke="black" stroke-width="0.8"/>
<circle cx="740.9" cy="153.5" r="3.1" fill="#D9D9D9"/>
<circle cx="740.9" cy="153.5" r="3.1" stroke="black"/>
<circle cx="749.5" cy="153.5" r="3.1" fill="#D9D9D9"/>
<circle cx="749.5" cy="153.5" r="3.1" stroke="black"/>
<rect x="471.4" y="147.4" width="55.2" height="244.2" rx="1.6" stroke="black" stroke-width="0.8"/>
<rect x="479.8" y="160.4" width="2.4" height="2.4" rx="0.8" fill="black" fill-opacity="0.8"/>
<rect x="484.6" y="160.4" width="28" height="2.4" rx="0.8" fill="black" fill-opacity="0.8"/>
<rect x="479.8" y="170.801" width="2.4" height="2.4" rx="0.8" fill="#D9D9D9"/>
<rect x="484.6" y="170.801" width="28" height="2.4" rx="0.8" fill="#D9D9D9"/>
<rect x="479.8" y="181.2" width="2.4" height="2.4" rx="0.8" fill="#D9D9D9"/>
<rect x="484.6" y="181.2" width="28" height="2.4" rx="0.8" fill="#D9D9D9"/>
<rect x="479.8" y="191.601" width="2.4" height="2.4" rx="0.8" fill="#D9D9D9"/>
<rect x="484.6" y="191.601" width="28" height="2.4" rx="0.8" fill="#D9D9D9"/>
<rect x="479.8" y="202" width="2.4" height="2.4" rx="0.8" fill="#D9D9D9"/>
<rect x="484.6" y="202" width="28" height="2.4" rx="0.8" fill="#D9D9D9"/>
<rect x="527.1" y="194.1" width="231.8" height="183.8" rx="0.7" stroke="black" stroke-width="0.2"/>
<rect x="538" y="202" width="46.75" height="2" fill="#D9D9D9"/>
<rect x="538.4" y="208.4" width="45.95" height="23.2" rx="1.6" stroke="#D9D9D9" stroke-width="0.8" stroke-dasharray="1.6 1.6"/>
<rect x="592.75" y="202" width="46.75" height="2" fill="#D9D9D9"/>
<rect x="593.15" y="208.4" width="45.95" height="23.2" rx="1.6" stroke="#D9D9D9" stroke-width="0.8" stroke-dasharray="1.6 1.6"/>
<rect x="647.5" y="202" width="46.75" height="2" fill="#D9D9D9"/>
<rect x="647.9" y="208.4" width="45.95" height="23.2" rx="1.6" stroke="#D9D9D9" stroke-width="0.8" stroke-dasharray="1.6 1.6"/>
<rect x="702.25" y="202" width="46.75" height="2" fill="#D9D9D9"/>
<rect x="702.65" y="208.4" width="45.95" height="23.2" rx="1.6" stroke="#D9D9D9" stroke-width="0.8" stroke-dasharray="1.6 1.6"/>
<rect x="538" y="240" width="211" height="4" rx="0.8" fill="#D9D9D9"/>
<rect x="538" y="248" width="191" height="4" rx="0.8" fill="#D9D9D9"/>
<rect x="538" y="256" width="191" height="4" rx="0.8" fill="#D9D9D9"/>
<rect x="538" y="264" width="191" height="4" rx="0.8" fill="#D9D9D9"/>
<rect x="538" y="272" width="191" height="4" rx="0.8" fill="#D9D9D9"/>
<rect x="538" y="280" width="191" height="4" rx="0.8" fill="#D9D9D9"/>
<rect x="538" y="288" width="191" height="4" rx="0.8" fill="#D9D9D9"/>
<rect x="538" y="296" width="191" height="4" rx="0.8" fill="#D9D9D9"/>
<rect x="538" y="304" width="191" height="4" rx="0.8" fill="#D9D9D9"/>
<rect x="538" y="312" width="191" height="4" rx="0.8" fill="#D9D9D9"/>
<rect x="538" y="320" width="191" height="4" rx="0.8" fill="#D9D9D9"/>
<rect x="538" y="328" width="191" height="4" rx="0.8" fill="#D9D9D9"/>
<rect x="538" y="336" width="191" height="4" rx="0.8" fill="#D9D9D9"/>
<rect x="538" y="344" width="191" height="4" rx="0.8" fill="#D9D9D9"/>
<rect x="538" y="352" width="191" height="4" rx="0.8" fill="#D9D9D9"/>
<rect x="538" y="360" width="191" height="4" rx="0.8" fill="#D9D9D9"/>
<rect x="538" y="368" width="191" height="4" rx="0.8" fill="#D9D9D9"/>
<rect x="733" y="248" width="16" height="4" rx="2" fill="#80CAFF"/>
<rect x="733" y="256" width="16" height="4" rx="2" fill="#80CAFF"/>
<rect x="733" y="264" width="16" height="4" rx="2" fill="#80CAFF"/>
<rect x="733" y="272" width="16" height="4" rx="2" fill="#80CAFF"/>
<rect x="733" y="280" width="16" height="4" rx="2" fill="#80CAFF"/>
<rect x="733" y="288" width="16" height="4" rx="2" fill="#80CAFF"/>
<rect x="733" y="296" width="16" height="4" rx="2" fill="#80CAFF"/>
<rect x="733" y="304" width="16" height="4" rx="2" fill="#80CAFF"/>
<rect x="733" y="312" width="16" height="4" rx="2" fill="#80CAFF"/>
<rect x="733" y="320" width="16" height="4" rx="2" fill="#80CAFF"/>
<rect x="733" y="328" width="16" height="4" rx="2" fill="#80CAFF"/>
<rect x="733" y="336" width="16" height="4" rx="2" fill="#80CAFF"/>
<rect x="733" y="344" width="16" height="4" rx="2" fill="#80CAFF"/>
<rect x="733" y="352" width="16" height="4" rx="2" fill="#80CAFF"/>
<rect x="733" y="360" width="16" height="4" rx="2" fill="#80CAFF"/>
<rect x="733" y="368" width="16" height="4" rx="2" fill="#80CAFF"/>
<rect x="537" y="169" width="176" height="2" rx="1" fill="#ECECEC"/>
<rect x="537.4" y="175.4" width="175.2" height="7.2" rx="1.6" stroke="black" stroke-width="0.8"/>
<rect x="717" y="169" width="32" height="2" rx="1" fill="#ECECEC"/>
<g filter="url(#filter2_d_481_16677)">
<rect x="717" y="175" width="32" height="8" rx="2" fill="#80CAFF"/>
<rect x="717.4" y="175.4" width="31.2" height="7.2" rx="1.6" stroke="black" stroke-width="0.8"/>
</g>
</g>
<rect x="471.4" y="135.4" width="287.2" height="256.2" rx="9.6" stroke="black" stroke-width="0.8"/>
<rect x="99.4" y="135.4" width="287.2" height="256.2" rx="9.6" fill="white"/>
<rect x="99.4" y="135.4" width="287.2" height="256.2" rx="9.6" stroke="black" stroke-width="0.8"/>
<rect x="99.4" y="135.4" width="287.2" height="12" rx="1.6" stroke="black" stroke-width="0.8"/>
<g filter="url(#filter3_d_481_16677)">
<rect x="237" y="293" width="28" height="8" rx="2" fill="#80CAFF"/>
<rect x="237.4" y="293.4" width="27.2" height="7.2" rx="1.6" stroke="black" stroke-width="0.8"/>
</g>
<rect x="231.4" y="217.2" width="38" height="21.8" rx="1.6" stroke="#D9D9D9" stroke-width="0.8" stroke-dasharray="1.6 1.6"/>
<rect x="210.4" y="250.6" width="80.8" height="10.6" rx="1.6" stroke="black" stroke-width="0.8"/>
<rect x="213.8" y="255" width="11.4" height="2" rx="0.8" fill="#D9D9D9"/>
<rect x="210.4" y="270" width="80.8" height="10.6" rx="1.6" stroke="black" stroke-width="0.8"/>
<rect x="213.8" y="274.399" width="11.4" height="2" rx="0.8" fill="#D9D9D9"/>
<rect x="210" y="289" width="11.4" height="2" rx="0.8" fill="#D9D9D9"/>
<rect x="276.4" y="289" width="11.4" height="2" rx="0.8" fill="#D9D9D9"/>
<ellipse cx="495.92" cy="78.4004" rx="25.92" ry="25.92" fill="black" fill-opacity="0.8"/>
<path d="M490.173 87.5303V84.9648L496.979 78.2926C497.63 77.6353 498.173 77.0513 498.607 76.5408C499.041 76.0302 499.366 75.5357 499.583 75.057C499.8 74.5784 499.909 74.0678 499.909 73.5254C499.909 72.9063 499.768 72.3767 499.488 71.9363C499.207 71.4896 498.821 71.145 498.329 70.9025C497.838 70.6599 497.279 70.5387 496.654 70.5387C496.009 70.5387 495.445 70.6727 494.96 70.9407C494.475 71.2024 494.098 71.5757 493.83 72.0608C493.568 72.5458 493.438 73.1233 493.438 73.7934H490.058C490.058 72.549 490.342 71.4672 490.91 70.5483C491.478 69.6293 492.26 68.9177 493.256 68.4135C494.258 67.9094 495.406 67.6573 496.702 67.6573C498.017 67.6573 499.172 67.903 500.167 68.3944C501.163 68.8858 501.935 69.5591 502.484 70.4142C503.039 71.2694 503.317 72.2458 503.317 73.3435C503.317 74.0774 503.176 74.7986 502.895 75.5069C502.615 76.2153 502.12 77.0003 501.412 77.8618C500.71 78.7234 499.724 79.7668 498.454 80.9921L495.075 84.4287V84.5627H503.613V87.5303H490.173Z" fill="white"/>
<rect x="885" y="224" width="50.6" height="4" rx="0.8" fill="#D9D9D9"/>
<rect x="958.4" y="224" width="123.2" height="4" rx="0.8" fill="#D9D9D9"/>
<rect x="885" y="232" width="50.6" height="4" rx="0.8" fill="#D9D9D9"/>
<rect x="958.4" y="232" width="123.2" height="4" rx="0.8" fill="#D9D9D9"/>
<rect x="885" y="240" width="50.6" height="4" rx="0.8" fill="#D9D9D9"/>
<rect x="958.4" y="240" width="123.2" height="4" rx="0.8" fill="#D9D9D9"/>
<rect x="885" y="248" width="50.6" height="4" rx="0.8" fill="#D9D9D9"/>
<rect x="958.4" y="248" width="123.2" height="4" rx="0.8" fill="#D9D9D9"/>
<rect x="885" y="256" width="50.6" height="4" rx="0.8" fill="#D9D9D9"/>
<rect x="958.4" y="256" width="123.2" height="4" rx="0.8" fill="#D9D9D9"/>
<rect x="885" y="264" width="50.6" height="4" rx="0.8" fill="#D9D9D9"/>
<rect x="958.4" y="264" width="123.2" height="4" rx="0.8" fill="#D9D9D9"/>
<rect x="885" y="272" width="50.6" height="4" rx="0.8" fill="#D9D9D9"/>
<rect x="958.4" y="272" width="123.2" height="4" rx="0.8" fill="#D9D9D9"/>
<rect x="885" y="280" width="50.6" height="4" rx="0.8" fill="#D9D9D9"/>
<rect x="958.4" y="280" width="123.2" height="4" rx="0.8" fill="#D9D9D9"/>
<rect x="885" y="298.4" width="40" height="4" rx="0.8" fill="#D9D9D9"/>
<rect x="885" y="306.4" width="50.6" height="4" rx="0.8" fill="#D9D9D9"/>
<rect x="958.4" y="306.4" width="123.2" height="4" rx="0.8" fill="#D9D9D9"/>
<rect x="885" y="326" width="40" height="4" rx="0.8" fill="#D9D9D9"/>
<rect x="885" y="334" width="50.6" height="4" rx="0.8" fill="#D9D9D9"/>
<rect x="958.4" y="334" width="123.2" height="4" rx="0.8" fill="#D9D9D9"/>
<ellipse cx="124.92" cy="78.4004" rx="25.92" ry="25.92" fill="black" fill-opacity="0.8"/>
<path d="M127.147 67.9253V87.5303H123.596V71.3811H123.481L118.896 74.3103V71.0556L123.768 67.9253H127.147Z" fill="white"/>
<ellipse cx="868.92" cy="78.4004" rx="25.92" ry="25.92" fill="black" fill-opacity="0.8"/>
<path d="M868.609 87.7983C867.231 87.7983 866.006 87.5622 864.933 87.0899C863.868 86.6177 863.025 85.9603 862.406 85.1179C861.787 84.2755 861.459 83.3023 861.42 82.1983H865.02C865.052 82.728 865.227 83.1906 865.546 83.5863C865.865 83.9756 866.29 84.2787 866.819 84.4957C867.349 84.7127 867.942 84.8212 868.6 84.8212C869.302 84.8212 869.924 84.6999 870.466 84.4574C871.009 84.2085 871.433 83.8639 871.74 83.4236C872.046 82.9832 872.196 82.4759 872.19 81.9015C872.196 81.308 872.043 80.7847 871.73 80.3316C871.417 79.8785 870.964 79.5243 870.371 79.269C869.784 79.0137 869.075 78.8861 868.246 78.8861H866.513V76.1483H868.246C868.928 76.1483 869.525 76.0302 870.036 75.7941C870.553 75.558 870.958 75.2261 871.251 74.7986C871.545 74.3646 871.689 73.8636 871.682 73.2956C871.689 72.7404 871.564 72.2586 871.309 71.8502C871.06 71.4353 870.706 71.1131 870.246 70.8833C869.793 70.6536 869.26 70.5387 868.648 70.5387C868.048 70.5387 867.493 70.6472 866.982 70.8642C866.471 71.0811 866.06 71.3907 865.747 71.7927C865.434 72.1884 865.268 72.6606 865.249 73.2095H861.832C861.857 72.1118 862.173 71.1482 862.78 70.3185C863.392 69.4825 864.209 68.8316 865.23 68.3657C866.251 67.8934 867.397 67.6573 868.667 67.6573C869.975 67.6573 871.111 67.903 872.075 68.3944C873.045 68.8794 873.795 69.5336 874.324 70.3568C874.854 71.1801 875.119 72.0895 875.119 73.085C875.125 74.1891 874.8 75.1145 874.142 75.8611C873.491 76.6078 872.636 77.096 871.577 77.3258V77.4789C872.955 77.6704 874.012 78.1809 874.745 79.0105C875.486 79.8338 875.853 80.8581 875.846 82.0834C875.846 83.1811 875.534 84.1639 874.908 85.0318C874.289 85.8933 873.434 86.5698 872.343 87.0612C871.258 87.5526 870.013 87.7983 868.609 87.7983Z" fill="white"/>
<ellipse cx="1238.92" cy="78.4004" rx="25.92" ry="25.92" fill="black" fill-opacity="0.8"/>
<path d="M1231.22 83.8926V81.0687L1239.54 67.9253H1241.89V71.9459H1240.46L1234.86 80.8198V80.973H1246.47V83.8926H1231.22ZM1240.57 87.5303V83.0311L1240.61 81.7675V67.9253H1243.96V87.5303H1240.57Z" fill="white"/>
<path d="M470.414 258.414C471.195 257.633 471.195 256.367 470.414 255.586L457.686 242.858C456.905 242.077 455.639 242.077 454.858 242.858C454.077 243.639 454.077 244.905 454.858 245.686L466.172 257L454.858 268.314C454.077 269.095 454.077 270.361 454.858 271.142C455.639 271.923 456.905 271.923 457.686 271.142L470.414 258.414ZM389 257V259H469V257V255H389V257Z" fill="black"/>
<path d="M840.414 258.414C841.195 257.633 841.195 256.367 840.414 255.586L827.686 242.858C826.905 242.077 825.639 242.077 824.858 242.858C824.077 243.639 824.077 244.905 824.858 245.686L836.172 257L824.858 268.314C824.077 269.095 824.077 270.361 824.858 271.142C825.639 271.923 826.905 271.923 827.686 271.142L840.414 258.414ZM759 257V259H839V257V255H759V257Z" fill="black"/>
<path d="M1212.41 258.414C1213.2 257.633 1213.2 256.367 1212.41 255.586L1199.69 242.858C1198.91 242.077 1197.64 242.077 1196.86 242.858C1196.08 243.639 1196.08 244.905 1196.86 245.686L1208.17 257L1196.86 268.314C1196.08 269.095 1196.08 270.361 1196.86 271.142C1197.64 271.923 1198.91 271.923 1199.69 271.142L1212.41 258.414ZM1131 257V259H1211V257V255H1131V257Z" fill="black"/>
<path d="M221.661 443.5V428.955H223.855V441.611H230.446V443.5H221.661ZM237.374 443.72C236.352 443.72 235.459 443.486 234.697 443.017C233.934 442.548 233.343 441.893 232.921 441.05C232.5 440.207 232.289 439.222 232.289 438.095C232.289 436.964 232.5 435.974 232.921 435.126C233.343 434.279 233.934 433.621 234.697 433.152C235.459 432.683 236.352 432.449 237.374 432.449C238.397 432.449 239.29 432.683 240.052 433.152C240.814 433.621 241.406 434.279 241.827 435.126C242.249 435.974 242.46 436.964 242.46 438.095C242.46 439.222 242.249 440.207 241.827 441.05C241.406 441.893 240.814 442.548 240.052 443.017C239.29 443.486 238.397 443.72 237.374 443.72ZM237.381 441.938C238.044 441.938 238.594 441.762 239.029 441.412C239.465 441.062 239.787 440.595 239.995 440.013C240.208 439.43 240.315 438.789 240.315 438.088C240.315 437.392 240.208 436.753 239.995 436.17C239.787 435.583 239.465 435.112 239.029 434.757C238.594 434.402 238.044 434.224 237.381 434.224C236.714 434.224 236.16 434.402 235.719 434.757C235.284 435.112 234.96 435.583 234.746 436.17C234.538 436.753 234.434 437.392 234.434 438.088C234.434 438.789 234.538 439.43 234.746 440.013C234.96 440.595 235.284 441.062 235.719 441.412C236.16 441.762 236.714 441.938 237.381 441.938ZM249.404 447.818C248.537 447.818 247.792 447.705 247.167 447.477C246.546 447.25 246.04 446.949 245.647 446.575C245.254 446.201 244.96 445.792 244.766 445.347L246.591 444.594C246.719 444.802 246.89 445.022 247.103 445.254C247.32 445.491 247.614 445.692 247.983 445.858C248.357 446.024 248.838 446.107 249.425 446.107C250.23 446.107 250.895 445.91 251.421 445.517C251.946 445.129 252.209 444.509 252.209 443.656V441.511H252.074C251.946 441.743 251.762 442.001 251.52 442.286C251.283 442.57 250.957 442.816 250.54 443.024C250.123 443.232 249.581 443.337 248.914 443.337C248.052 443.337 247.275 443.135 246.584 442.733C245.898 442.326 245.353 441.727 244.951 440.936C244.553 440.141 244.354 439.163 244.354 438.003C244.354 436.843 244.551 435.848 244.944 435.02C245.341 434.191 245.886 433.557 246.577 433.116C247.268 432.671 248.052 432.449 248.928 432.449C249.605 432.449 250.152 432.562 250.569 432.79C250.985 433.012 251.31 433.273 251.542 433.571C251.778 433.869 251.961 434.132 252.088 434.359H252.245V432.591H254.326V443.741C254.326 444.679 254.108 445.448 253.672 446.05C253.237 446.651 252.647 447.096 251.904 447.385C251.165 447.674 250.332 447.818 249.404 447.818ZM249.382 441.575C249.993 441.575 250.509 441.433 250.931 441.149C251.357 440.86 251.679 440.448 251.897 439.913C252.119 439.374 252.23 438.727 252.23 437.974C252.23 437.241 252.122 436.594 251.904 436.036C251.686 435.477 251.366 435.041 250.945 434.729C250.524 434.411 250.003 434.253 249.382 434.253C248.743 434.253 248.211 434.419 247.784 434.75C247.358 435.077 247.036 435.522 246.819 436.085C246.605 436.649 246.499 437.278 246.499 437.974C246.499 438.689 246.608 439.317 246.826 439.857C247.043 440.396 247.365 440.818 247.792 441.121C248.222 441.424 248.753 441.575 249.382 441.575ZM263.601 436.433V438.273H257.152V436.433H263.601ZM266.431 443.5V432.591H268.555V443.5H266.431ZM267.504 430.908C267.135 430.908 266.817 430.785 266.552 430.538C266.292 430.287 266.162 429.989 266.162 429.643C266.162 429.293 266.292 428.995 266.552 428.749C266.817 428.498 267.135 428.372 267.504 428.372C267.873 428.372 268.188 428.498 268.449 428.749C268.714 428.995 268.846 429.293 268.846 429.643C268.846 429.989 268.714 430.287 268.449 430.538C268.188 430.785 267.873 430.908 267.504 430.908ZM273.536 437.023V443.5H271.412V432.591H273.45V434.366H273.585C273.836 433.789 274.229 433.325 274.764 432.974C275.304 432.624 275.983 432.449 276.803 432.449C277.546 432.449 278.197 432.605 278.756 432.918C279.314 433.225 279.748 433.685 280.055 434.295C280.363 434.906 280.517 435.661 280.517 436.561V443.5H278.393V436.817C278.393 436.026 278.188 435.408 277.776 434.963C277.364 434.513 276.798 434.288 276.078 434.288C275.586 434.288 275.148 434.395 274.764 434.608C274.385 434.821 274.085 435.134 273.862 435.545C273.644 435.953 273.536 436.445 273.536 437.023Z" fill="black"/>
<path d="M550.537 443.5V428.955H555.722C556.854 428.955 557.791 429.161 558.535 429.572C559.278 429.984 559.834 430.548 560.204 431.263C560.573 431.973 560.758 432.773 560.758 433.663C560.758 434.558 560.571 435.363 560.197 436.078C559.827 436.788 559.269 437.352 558.52 437.768C557.777 438.18 556.842 438.386 555.715 438.386H552.15V436.526H555.516C556.231 436.526 556.811 436.402 557.256 436.156C557.701 435.905 558.028 435.564 558.236 435.134C558.445 434.703 558.549 434.213 558.549 433.663C558.549 433.114 558.445 432.626 558.236 432.2C558.028 431.774 557.699 431.44 557.249 431.199C556.804 430.957 556.217 430.837 555.488 430.837H552.732V443.5H550.537ZM563.16 443.5V432.591H565.213V434.324H565.326C565.525 433.737 565.875 433.275 566.377 432.939C566.884 432.598 567.457 432.428 568.096 432.428C568.229 432.428 568.385 432.432 568.565 432.442C568.749 432.451 568.894 432.463 568.998 432.477V434.509C568.913 434.485 568.761 434.459 568.544 434.43C568.326 434.397 568.108 434.381 567.89 434.381C567.388 434.381 566.941 434.487 566.548 434.7C566.16 434.909 565.852 435.2 565.624 435.574C565.397 435.943 565.284 436.365 565.284 436.838V443.5H563.16ZM575.04 443.72C574.018 443.72 573.125 443.486 572.363 443.017C571.6 442.548 571.009 441.893 570.587 441.05C570.166 440.207 569.955 439.222 569.955 438.095C569.955 436.964 570.166 435.974 570.587 435.126C571.009 434.279 571.6 433.621 572.363 433.152C573.125 432.683 574.018 432.449 575.04 432.449C576.063 432.449 576.956 432.683 577.718 433.152C578.48 433.621 579.072 434.279 579.493 435.126C579.915 435.974 580.126 436.964 580.126 438.095C580.126 439.222 579.915 440.207 579.493 441.05C579.072 441.893 578.48 442.548 577.718 443.017C576.956 443.486 576.063 443.72 575.04 443.72ZM575.047 441.938C575.71 441.938 576.26 441.762 576.695 441.412C577.131 441.062 577.453 440.595 577.661 440.013C577.874 439.43 577.981 438.789 577.981 438.088C577.981 437.392 577.874 436.753 577.661 436.17C577.453 435.583 577.131 435.112 576.695 434.757C576.26 434.402 575.71 434.224 575.047 434.224C574.38 434.224 573.826 434.402 573.385 434.757C572.95 435.112 572.626 435.583 572.412 436.17C572.204 436.753 572.1 437.392 572.1 438.088C572.1 438.789 572.204 439.43 572.412 440.013C572.626 440.595 572.95 441.062 573.385 441.412C573.826 441.762 574.38 441.938 575.047 441.938ZM586.58 443.713C585.699 443.713 584.913 443.488 584.222 443.038C583.535 442.584 582.995 441.937 582.602 441.099C582.214 440.257 582.02 439.246 582.02 438.067C582.02 436.888 582.217 435.879 582.61 435.041C583.007 434.203 583.552 433.562 584.243 433.116C584.934 432.671 585.718 432.449 586.594 432.449C587.271 432.449 587.816 432.562 588.227 432.79C588.644 433.012 588.966 433.273 589.193 433.571C589.425 433.869 589.605 434.132 589.733 434.359H589.861V428.955H591.985V443.5H589.911V441.803H589.733C589.605 442.035 589.421 442.3 589.179 442.598C588.942 442.896 588.616 443.157 588.199 443.379C587.782 443.602 587.243 443.713 586.58 443.713ZM587.048 441.902C587.659 441.902 588.175 441.741 588.597 441.419C589.023 441.092 589.345 440.64 589.563 440.062C589.785 439.485 589.896 438.812 589.896 438.045C589.896 437.288 589.788 436.625 589.57 436.057C589.352 435.489 589.032 435.046 588.611 434.729C588.19 434.411 587.669 434.253 587.048 434.253C586.409 434.253 585.877 434.419 585.45 434.75C585.024 435.081 584.702 435.534 584.485 436.107C584.271 436.679 584.165 437.326 584.165 438.045C584.165 438.775 584.274 439.43 584.492 440.013C584.709 440.595 585.031 441.057 585.458 441.398C585.888 441.734 586.419 441.902 587.048 441.902ZM601.926 438.976V432.591H604.057V443.5H601.969V441.611H601.855C601.604 442.193 601.202 442.679 600.648 443.067C600.098 443.45 599.414 443.642 598.595 443.642C597.894 443.642 597.274 443.488 596.734 443.18C596.199 442.868 595.778 442.406 595.47 441.795C595.167 441.185 595.015 440.429 595.015 439.53V432.591H597.139V439.274C597.139 440.018 597.345 440.609 597.757 441.05C598.169 441.49 598.704 441.71 599.362 441.71C599.76 441.71 600.155 441.611 600.548 441.412C600.946 441.213 601.275 440.912 601.535 440.51C601.8 440.107 601.931 439.596 601.926 438.976ZM611.505 443.72C610.449 443.72 609.54 443.481 608.778 443.003C608.02 442.52 607.438 441.855 607.031 441.007C606.624 440.16 606.42 439.189 606.42 438.095C606.42 436.987 606.628 436.009 607.045 435.162C607.462 434.31 608.049 433.644 608.806 433.166C609.564 432.688 610.456 432.449 611.484 432.449C612.312 432.449 613.051 432.603 613.7 432.911C614.348 433.214 614.872 433.64 615.269 434.189C615.672 434.738 615.911 435.38 615.987 436.114H613.92C613.806 435.602 613.546 435.162 613.139 434.793C612.736 434.423 612.196 434.239 611.519 434.239C610.927 434.239 610.409 434.395 609.964 434.707C609.524 435.015 609.18 435.455 608.934 436.028C608.688 436.597 608.565 437.269 608.565 438.045C608.565 438.841 608.686 439.527 608.927 440.105C609.169 440.683 609.509 441.13 609.95 441.447C610.395 441.765 610.918 441.923 611.519 441.923C611.922 441.923 612.286 441.85 612.613 441.703C612.945 441.552 613.222 441.336 613.444 441.057C613.671 440.777 613.83 440.441 613.92 440.048H615.987C615.911 440.754 615.681 441.384 615.298 441.938C614.914 442.491 614.401 442.927 613.757 443.244C613.117 443.562 612.367 443.72 611.505 443.72ZM623.35 432.591V434.295H617.391V432.591H623.35ZM618.989 429.977H621.113V440.297C621.113 440.709 621.174 441.019 621.297 441.227C621.421 441.431 621.579 441.571 621.773 441.646C621.972 441.717 622.188 441.753 622.42 441.753C622.59 441.753 622.739 441.741 622.867 441.717C622.995 441.694 623.094 441.675 623.165 441.661L623.549 443.415C623.426 443.462 623.251 443.509 623.023 443.557C622.796 443.609 622.512 443.637 622.171 443.642C621.612 443.652 621.091 443.552 620.608 443.344C620.126 443.135 619.735 442.813 619.437 442.378C619.138 441.942 618.989 441.395 618.989 440.737V429.977ZM633.116 437.023V443.5H630.992V428.955H633.087V434.366H633.222C633.478 433.779 633.868 433.313 634.394 432.967C634.92 432.622 635.606 432.449 636.454 432.449C637.202 432.449 637.855 432.603 638.414 432.911C638.977 433.218 639.413 433.678 639.721 434.288C640.033 434.894 640.189 435.652 640.189 436.561V443.5H638.066V436.817C638.066 436.017 637.86 435.396 637.448 434.956C637.036 434.511 636.463 434.288 635.729 434.288C635.227 434.288 634.778 434.395 634.38 434.608C633.987 434.821 633.677 435.134 633.449 435.545C633.227 435.953 633.116 436.445 633.116 437.023ZM647.618 443.72C646.596 443.72 645.703 443.486 644.941 443.017C644.179 442.548 643.587 441.893 643.165 441.05C642.744 440.207 642.533 439.222 642.533 438.095C642.533 436.964 642.744 435.974 643.165 435.126C643.587 434.279 644.179 433.621 644.941 433.152C645.703 432.683 646.596 432.449 647.618 432.449C648.641 432.449 649.534 432.683 650.296 433.152C651.058 433.621 651.65 434.279 652.072 435.126C652.493 435.974 652.704 436.964 652.704 438.095C652.704 439.222 652.493 440.207 652.072 441.05C651.65 441.893 651.058 442.548 650.296 443.017C649.534 443.486 648.641 443.72 647.618 443.72ZM647.626 441.938C648.288 441.938 648.838 441.762 649.273 441.412C649.709 441.062 650.031 440.595 650.239 440.013C650.452 439.43 650.559 438.789 650.559 438.088C650.559 437.392 650.452 436.753 650.239 436.17C650.031 435.583 649.709 435.112 649.273 434.757C648.838 434.402 648.288 434.224 647.626 434.224C646.958 434.224 646.404 434.402 645.964 434.757C645.528 435.112 645.204 435.583 644.991 436.17C644.782 436.753 644.678 437.392 644.678 438.088C644.678 438.789 644.782 439.43 644.991 440.013C645.204 440.595 645.528 441.062 645.964 441.412C646.404 441.762 646.958 441.938 647.626 441.938ZM655.074 443.5V432.591H657.112V434.366H657.247C657.475 433.765 657.846 433.296 658.362 432.96C658.878 432.619 659.496 432.449 660.216 432.449C660.945 432.449 661.556 432.619 662.048 432.96C662.546 433.301 662.913 433.77 663.149 434.366H663.263C663.523 433.784 663.938 433.32 664.506 432.974C665.074 432.624 665.751 432.449 666.537 432.449C667.527 432.449 668.334 432.759 668.959 433.379C669.589 434 669.904 434.935 669.904 436.185V443.5H667.78V436.384C667.78 435.645 667.579 435.11 667.176 434.778C666.774 434.447 666.293 434.281 665.735 434.281C665.043 434.281 664.506 434.494 664.122 434.92C663.739 435.342 663.547 435.884 663.547 436.547V443.5H661.431V436.249C661.431 435.657 661.246 435.181 660.877 434.821C660.507 434.461 660.027 434.281 659.435 434.281C659.032 434.281 658.661 434.388 658.32 434.601C657.984 434.809 657.711 435.1 657.503 435.474C657.299 435.848 657.198 436.282 657.198 436.774V443.5H655.074ZM677.452 443.72C676.377 443.72 675.451 443.491 674.675 443.031C673.903 442.567 673.306 441.916 672.885 441.078C672.468 440.235 672.26 439.248 672.26 438.116C672.26 436.999 672.468 436.014 672.885 435.162C673.306 434.31 673.893 433.644 674.646 433.166C675.404 432.688 676.289 432.449 677.302 432.449C677.918 432.449 678.515 432.551 679.092 432.754C679.67 432.958 680.188 433.277 680.648 433.713C681.107 434.149 681.469 434.714 681.734 435.411C681.999 436.102 682.132 436.942 682.132 437.932V438.685H673.46V437.094H680.051C680.051 436.535 679.937 436.04 679.71 435.609C679.483 435.174 679.163 434.83 678.751 434.58C678.344 434.329 677.866 434.203 677.317 434.203C676.72 434.203 676.199 434.35 675.754 434.643C675.314 434.932 674.973 435.311 674.731 435.78C674.495 436.244 674.376 436.748 674.376 437.293V438.536C674.376 439.265 674.504 439.885 674.76 440.396C675.02 440.908 675.382 441.298 675.846 441.568C676.31 441.833 676.853 441.966 677.473 441.966C677.875 441.966 678.242 441.909 678.574 441.795C678.905 441.677 679.192 441.502 679.433 441.27C679.675 441.038 679.859 440.751 679.987 440.411L681.997 440.773C681.836 441.365 681.547 441.883 681.131 442.328C680.719 442.768 680.2 443.112 679.575 443.358C678.955 443.599 678.247 443.72 677.452 443.72Z" fill="black"/>
<path d="M924.532 443.5V428.955H929.716C930.848 428.955 931.785 429.161 932.529 429.572C933.272 429.984 933.828 430.548 934.198 431.263C934.567 431.973 934.752 432.773 934.752 433.663C934.752 434.558 934.565 435.363 934.191 436.078C933.821 436.788 933.263 437.352 932.515 437.768C931.771 438.18 930.836 438.386 929.709 438.386H926.144V436.526H929.51C930.225 436.526 930.805 436.402 931.25 436.156C931.695 435.905 932.022 435.564 932.23 435.134C932.439 434.703 932.543 434.213 932.543 433.663C932.543 433.114 932.439 432.626 932.23 432.2C932.022 431.774 931.693 431.44 931.243 431.199C930.798 430.957 930.211 430.837 929.482 430.837H926.726V443.5H924.532ZM941.613 443.72C940.59 443.72 939.697 443.486 938.935 443.017C938.173 442.548 937.581 441.893 937.159 441.05C936.738 440.207 936.527 439.222 936.527 438.095C936.527 436.964 936.738 435.974 937.159 435.126C937.581 434.279 938.173 433.621 938.935 433.152C939.697 432.683 940.59 432.449 941.613 432.449C942.635 432.449 943.528 432.683 944.29 433.152C945.052 433.621 945.644 434.279 946.066 435.126C946.487 435.974 946.698 436.964 946.698 438.095C946.698 439.222 946.487 440.207 946.066 441.05C945.644 441.893 945.052 442.548 944.29 443.017C943.528 443.486 942.635 443.72 941.613 443.72ZM941.62 441.938C942.283 441.938 942.832 441.762 943.267 441.412C943.703 441.062 944.025 440.595 944.233 440.013C944.446 439.43 944.553 438.789 944.553 438.088C944.553 437.392 944.446 436.753 944.233 436.17C944.025 435.583 943.703 435.112 943.267 434.757C942.832 434.402 942.283 434.224 941.62 434.224C940.952 434.224 940.398 434.402 939.958 434.757C939.522 435.112 939.198 435.583 938.985 436.17C938.776 436.753 938.672 437.392 938.672 438.088C938.672 438.789 938.776 439.43 938.985 440.013C939.198 440.595 939.522 441.062 939.958 441.412C940.398 441.762 940.952 441.938 941.62 441.938ZM951.192 428.955V443.5H949.068V428.955H951.192ZM954.049 443.5V432.591H956.172V443.5H954.049ZM955.121 430.908C954.752 430.908 954.435 430.785 954.169 430.538C953.909 430.287 953.779 429.989 953.779 429.643C953.779 429.293 953.909 428.995 954.169 428.749C954.435 428.498 954.752 428.372 955.121 428.372C955.49 428.372 955.805 428.498 956.066 428.749C956.331 428.995 956.463 429.293 956.463 429.643C956.463 429.989 956.331 430.287 956.066 430.538C955.805 430.785 955.49 430.908 955.121 430.908ZM963.624 443.72C962.568 443.72 961.659 443.481 960.897 443.003C960.139 442.52 959.557 441.855 959.15 441.007C958.743 440.16 958.539 439.189 958.539 438.095C958.539 436.987 958.747 436.009 959.164 435.162C959.581 434.31 960.168 433.644 960.925 433.166C961.683 432.688 962.576 432.449 963.603 432.449C964.432 432.449 965.17 432.603 965.819 432.911C966.468 433.214 966.991 433.64 967.388 434.189C967.791 434.738 968.03 435.38 968.106 436.114H966.039C965.925 435.602 965.665 435.162 965.258 434.793C964.855 434.423 964.316 434.239 963.638 434.239C963.047 434.239 962.528 434.395 962.083 434.707C961.643 435.015 961.299 435.455 961.053 436.028C960.807 436.597 960.684 437.269 960.684 438.045C960.684 438.841 960.805 439.527 961.046 440.105C961.288 440.683 961.629 441.13 962.069 441.447C962.514 441.765 963.037 441.923 963.638 441.923C964.041 441.923 964.406 441.85 964.732 441.703C965.064 441.552 965.341 441.336 965.563 441.057C965.79 440.777 965.949 440.441 966.039 440.048H968.106C968.03 440.754 967.8 441.384 967.417 441.938C967.033 442.491 966.52 442.927 965.876 443.244C965.237 443.562 964.486 443.72 963.624 443.72ZM971.719 447.591C971.402 447.591 971.113 447.565 970.853 447.513C970.592 447.465 970.398 447.413 970.27 447.357L970.782 445.616C971.17 445.721 971.516 445.766 971.819 445.751C972.122 445.737 972.389 445.624 972.621 445.411C972.858 445.197 973.066 444.849 973.246 444.366L973.509 443.642L969.517 432.591H971.79L974.553 441.057H974.667L977.429 432.591H979.709L975.213 444.956C975.005 445.524 974.74 446.005 974.418 446.398C974.096 446.795 973.712 447.094 973.267 447.293C972.822 447.491 972.306 447.591 971.719 447.591ZM989.121 437.023V443.5H986.998V428.955H989.093V434.366H989.228C989.484 433.779 989.874 433.313 990.4 432.967C990.925 432.622 991.612 432.449 992.46 432.449C993.208 432.449 993.861 432.603 994.42 432.911C994.983 433.218 995.419 433.678 995.727 434.288C996.039 434.894 996.195 435.652 996.195 436.561V443.5H994.072V436.817C994.072 436.017 993.866 435.396 993.454 434.956C993.042 434.511 992.469 434.288 991.735 434.288C991.233 434.288 990.783 434.395 990.386 434.608C989.993 434.821 989.683 435.134 989.455 435.545C989.233 435.953 989.121 436.445 989.121 437.023ZM1003.62 443.72C1002.6 443.72 1001.71 443.486 1000.95 443.017C1000.18 442.548 999.593 441.893 999.171 441.05C998.75 440.207 998.539 439.222 998.539 438.095C998.539 436.964 998.75 435.974 999.171 435.126C999.593 434.279 1000.18 433.621 1000.95 433.152C1001.71 432.683 1002.6 432.449 1003.62 432.449C1004.65 432.449 1005.54 432.683 1006.3 433.152C1007.06 433.621 1007.66 434.279 1008.08 435.126C1008.5 435.974 1008.71 436.964 1008.71 438.095C1008.71 439.222 1008.5 440.207 1008.08 441.05C1007.66 441.893 1007.06 442.548 1006.3 443.017C1005.54 443.486 1004.65 443.72 1003.62 443.72ZM1003.63 441.938C1004.29 441.938 1004.84 441.762 1005.28 441.412C1005.71 441.062 1006.04 440.595 1006.25 440.013C1006.46 439.43 1006.56 438.789 1006.56 438.088C1006.56 437.392 1006.46 436.753 1006.25 436.17C1006.04 435.583 1005.71 435.112 1005.28 434.757C1004.84 434.402 1004.29 434.224 1003.63 434.224C1002.96 434.224 1002.41 434.402 1001.97 434.757C1001.53 435.112 1001.21 435.583 1001 436.17C1000.79 436.753 1000.68 437.392 1000.68 438.088C1000.68 438.789 1000.79 439.43 1001 440.013C1001.21 440.595 1001.53 441.062 1001.97 441.412C1002.41 441.762 1002.96 441.938 1003.63 441.938ZM1011.08 443.5V432.591H1013.12V434.366H1013.25C1013.48 433.765 1013.85 433.296 1014.37 432.96C1014.88 432.619 1015.5 432.449 1016.22 432.449C1016.95 432.449 1017.56 432.619 1018.05 432.96C1018.55 433.301 1018.92 433.77 1019.16 434.366H1019.27C1019.53 433.784 1019.94 433.32 1020.51 432.974C1021.08 432.624 1021.76 432.449 1022.54 432.449C1023.53 432.449 1024.34 432.759 1024.96 433.379C1025.59 434 1025.91 434.935 1025.91 436.185V443.5H1023.79V436.384C1023.79 435.645 1023.58 435.11 1023.18 434.778C1022.78 434.447 1022.3 434.281 1021.74 434.281C1021.05 434.281 1020.51 434.494 1020.13 434.92C1019.74 435.342 1019.55 435.884 1019.55 436.547V443.5H1017.44V436.249C1017.44 435.657 1017.25 435.181 1016.88 434.821C1016.51 434.461 1016.03 434.281 1015.44 434.281C1015.04 434.281 1014.67 434.388 1014.33 434.601C1013.99 434.809 1013.72 435.1 1013.51 435.474C1013.31 435.848 1013.2 436.282 1013.2 436.774V443.5H1011.08ZM1033.46 443.72C1032.38 443.72 1031.46 443.491 1030.68 443.031C1029.91 442.567 1029.31 441.916 1028.89 441.078C1028.47 440.235 1028.27 439.248 1028.27 438.116C1028.27 436.999 1028.47 436.014 1028.89 435.162C1029.31 434.31 1029.9 433.644 1030.65 433.166C1031.41 432.688 1032.29 432.449 1033.31 432.449C1033.92 432.449 1034.52 432.551 1035.1 432.754C1035.68 432.958 1036.19 433.277 1036.65 433.713C1037.11 434.149 1037.47 434.714 1037.74 435.411C1038.01 436.102 1038.14 436.942 1038.14 437.932V438.685H1029.47V437.094H1036.06C1036.06 436.535 1035.94 436.04 1035.72 435.609C1035.49 435.174 1035.17 434.83 1034.76 434.58C1034.35 434.329 1033.87 434.203 1033.32 434.203C1032.73 434.203 1032.21 434.35 1031.76 434.643C1031.32 434.932 1030.98 435.311 1030.74 435.78C1030.5 436.244 1030.38 436.748 1030.38 437.293V438.536C1030.38 439.265 1030.51 439.885 1030.77 440.396C1031.03 440.908 1031.39 441.298 1031.85 441.568C1032.32 441.833 1032.86 441.966 1033.48 441.966C1033.88 441.966 1034.25 441.909 1034.58 441.795C1034.91 441.677 1035.2 441.502 1035.44 441.27C1035.68 441.038 1035.87 440.751 1035.99 440.411L1038 440.773C1037.84 441.365 1037.55 441.883 1037.14 442.328C1036.72 442.768 1036.21 443.112 1035.58 443.358C1034.96 443.599 1034.25 443.72 1033.46 443.72Z" fill="black"/>
<path d="M1295.33 428.955H1297.99L1302.62 440.261H1302.79L1307.43 428.955H1310.09V443.5H1308V432.974H1307.87L1303.58 443.479H1301.84L1297.55 432.967H1297.42V443.5H1295.33V428.955ZM1317.7 443.72C1316.68 443.72 1315.79 443.486 1315.03 443.017C1314.26 442.548 1313.67 441.893 1313.25 441.05C1312.83 440.207 1312.62 439.222 1312.62 438.095C1312.62 436.964 1312.83 435.974 1313.25 435.126C1313.67 434.279 1314.26 433.621 1315.03 433.152C1315.79 432.683 1316.68 432.449 1317.7 432.449C1318.73 432.449 1319.62 432.683 1320.38 433.152C1321.14 433.621 1321.74 434.279 1322.16 435.126C1322.58 435.974 1322.79 436.964 1322.79 438.095C1322.79 439.222 1322.58 440.207 1322.16 441.05C1321.74 441.893 1321.14 442.548 1320.38 443.017C1319.62 443.486 1318.73 443.72 1317.7 443.72ZM1317.71 441.938C1318.37 441.938 1318.92 441.762 1319.36 441.412C1319.79 441.062 1320.12 440.595 1320.33 440.013C1320.54 439.43 1320.64 438.789 1320.64 438.088C1320.64 437.392 1320.54 436.753 1320.33 436.17C1320.12 435.583 1319.79 435.112 1319.36 434.757C1318.92 434.402 1318.37 434.224 1317.71 434.224C1317.04 434.224 1316.49 434.402 1316.05 434.757C1315.61 435.112 1315.29 435.583 1315.08 436.17C1314.87 436.753 1314.76 437.392 1314.76 438.088C1314.76 438.789 1314.87 439.43 1315.08 440.013C1315.29 440.595 1315.61 441.062 1316.05 441.412C1316.49 441.762 1317.04 441.938 1317.71 441.938ZM1329.24 443.713C1328.36 443.713 1327.58 443.488 1326.89 443.038C1326.2 442.584 1325.66 441.937 1325.27 441.099C1324.88 440.257 1324.68 439.246 1324.68 438.067C1324.68 436.888 1324.88 435.879 1325.27 435.041C1325.67 434.203 1326.22 433.562 1326.91 433.116C1327.6 432.671 1328.38 432.449 1329.26 432.449C1329.94 432.449 1330.48 432.562 1330.89 432.79C1331.31 433.012 1331.63 433.273 1331.86 433.571C1332.09 433.869 1332.27 434.132 1332.4 434.359H1332.53V428.955H1334.65V443.5H1332.57V441.803H1332.4C1332.27 442.035 1332.08 442.3 1331.84 442.598C1331.61 442.896 1331.28 443.157 1330.86 443.379C1330.45 443.602 1329.91 443.713 1329.24 443.713ZM1329.71 441.902C1330.32 441.902 1330.84 441.741 1331.26 441.419C1331.69 441.092 1332.01 440.64 1332.23 440.062C1332.45 439.485 1332.56 438.812 1332.56 438.045C1332.56 437.288 1332.45 436.625 1332.23 436.057C1332.02 435.489 1331.7 435.046 1331.28 434.729C1330.85 434.411 1330.33 434.253 1329.71 434.253C1329.07 434.253 1328.54 434.419 1328.11 434.75C1327.69 435.081 1327.37 435.534 1327.15 436.107C1326.94 436.679 1326.83 437.326 1326.83 438.045C1326.83 438.775 1326.94 439.43 1327.16 440.013C1327.37 440.595 1327.7 441.057 1328.12 441.398C1328.55 441.734 1329.08 441.902 1329.71 441.902ZM1337.68 443.5V432.591H1339.8V443.5H1337.68ZM1338.75 430.908C1338.38 430.908 1338.07 430.785 1337.8 430.538C1337.54 430.287 1337.41 429.989 1337.41 429.643C1337.41 429.293 1337.54 428.995 1337.8 428.749C1338.07 428.498 1338.38 428.372 1338.75 428.372C1339.12 428.372 1339.44 428.498 1339.7 428.749C1339.96 428.995 1340.09 429.293 1340.09 429.643C1340.09 429.989 1339.96 430.287 1339.7 430.538C1339.44 430.785 1339.12 430.908 1338.75 430.908ZM1347.85 432.591V434.295H1341.69V432.591H1347.85ZM1343.38 443.5V431.327C1343.38 430.645 1343.53 430.079 1343.82 429.629C1344.12 429.175 1344.52 428.836 1345.01 428.614C1345.5 428.386 1346.04 428.273 1346.62 428.273C1347.04 428.273 1347.41 428.308 1347.71 428.379C1348.01 428.446 1348.24 428.507 1348.38 428.564L1347.89 430.283C1347.79 430.254 1347.66 430.221 1347.5 430.183C1347.35 430.141 1347.16 430.119 1346.94 430.119C1346.42 430.119 1346.05 430.247 1345.83 430.503C1345.61 430.759 1345.5 431.128 1345.5 431.611V443.5H1343.38ZM1351.39 447.591C1351.07 447.591 1350.78 447.565 1350.52 447.513C1350.26 447.465 1350.06 447.413 1349.94 447.357L1350.45 445.616C1350.84 445.721 1351.18 445.766 1351.48 445.751C1351.79 445.737 1352.06 445.624 1352.29 445.411C1352.52 445.197 1352.73 444.849 1352.91 444.366L1353.17 443.642L1349.18 432.591H1351.46L1354.22 441.057H1354.33L1357.1 432.591H1359.38L1354.88 444.956C1354.67 445.524 1354.41 446.005 1354.08 446.398C1353.76 446.795 1353.38 447.094 1352.93 447.293C1352.49 447.491 1351.97 447.591 1351.39 447.591ZM1366.66 447.591V432.591H1368.74V434.359H1368.92C1369.04 434.132 1369.22 433.869 1369.45 433.571C1369.68 433.273 1370 433.012 1370.41 432.79C1370.83 432.562 1371.37 432.449 1372.05 432.449C1372.93 432.449 1373.71 432.671 1374.41 433.116C1375.1 433.562 1375.64 434.203 1376.03 435.041C1376.43 435.879 1376.63 436.888 1376.63 438.067C1376.63 439.246 1376.43 440.257 1376.04 441.099C1375.65 441.937 1375.11 442.584 1374.42 443.038C1373.73 443.488 1372.95 443.713 1372.07 443.713C1371.41 443.713 1370.86 443.602 1370.44 443.379C1370.03 443.157 1369.7 442.896 1369.46 442.598C1369.23 442.3 1369.04 442.035 1368.92 441.803H1368.79V447.591H1366.66ZM1368.74 438.045C1368.74 438.812 1368.86 439.485 1369.08 440.062C1369.3 440.64 1369.62 441.092 1370.04 441.419C1370.47 441.741 1370.98 441.902 1371.59 441.902C1372.23 441.902 1372.76 441.734 1373.18 441.398C1373.61 441.057 1373.93 440.595 1374.15 440.013C1374.37 439.43 1374.48 438.775 1374.48 438.045C1374.48 437.326 1374.37 436.679 1374.16 436.107C1373.94 435.534 1373.62 435.081 1373.19 434.75C1372.76 434.419 1372.23 434.253 1371.59 434.253C1370.98 434.253 1370.46 434.411 1370.03 434.729C1369.61 435.046 1369.29 435.489 1369.07 436.057C1368.85 436.625 1368.74 437.288 1368.74 438.045ZM1383.6 443.72C1382.58 443.72 1381.69 443.486 1380.93 443.017C1380.16 442.548 1379.57 441.893 1379.15 441.05C1378.73 440.207 1378.52 439.222 1378.52 438.095C1378.52 436.964 1378.73 435.974 1379.15 435.126C1379.57 434.279 1380.16 433.621 1380.93 433.152C1381.69 432.683 1382.58 432.449 1383.6 432.449C1384.63 432.449 1385.52 432.683 1386.28 433.152C1387.04 433.621 1387.63 434.279 1388.06 435.126C1388.48 435.974 1388.69 436.964 1388.69 438.095C1388.69 439.222 1388.48 440.207 1388.06 441.05C1387.63 441.893 1387.04 442.548 1386.28 443.017C1385.52 443.486 1384.63 443.72 1383.6 443.72ZM1383.61 441.938C1384.27 441.938 1384.82 441.762 1385.26 441.412C1385.69 441.062 1386.02 440.595 1386.22 440.013C1386.44 439.43 1386.54 438.789 1386.54 438.088C1386.54 437.392 1386.44 436.753 1386.22 436.17C1386.02 435.583 1385.69 435.112 1385.26 434.757C1384.82 434.402 1384.27 434.224 1383.61 434.224C1382.94 434.224 1382.39 434.402 1381.95 434.757C1381.51 435.112 1381.19 435.583 1380.97 436.17C1380.77 436.753 1380.66 437.392 1380.66 438.088C1380.66 438.789 1380.77 439.43 1380.97 440.013C1381.19 440.595 1381.51 441.062 1381.95 441.412C1382.39 441.762 1382.94 441.938 1383.61 441.938ZM1393.18 428.955V443.5H1391.06V428.955H1393.18ZM1396.04 443.5V432.591H1398.16V443.5H1396.04ZM1397.11 430.908C1396.74 430.908 1396.42 430.785 1396.16 430.538C1395.9 430.287 1395.77 429.989 1395.77 429.643C1395.77 429.293 1395.9 428.995 1396.16 428.749C1396.42 428.498 1396.74 428.372 1397.11 428.372C1397.48 428.372 1397.8 428.498 1398.06 428.749C1398.32 428.995 1398.45 429.293 1398.45 429.643C1398.45 429.989 1398.32 430.287 1398.06 430.538C1397.8 430.785 1397.48 430.908 1397.11 430.908ZM1405.61 443.72C1404.56 443.72 1403.65 443.481 1402.89 443.003C1402.13 442.52 1401.55 441.855 1401.14 441.007C1400.73 440.16 1400.53 439.189 1400.53 438.095C1400.53 436.987 1400.74 436.009 1401.15 435.162C1401.57 434.31 1402.16 433.644 1402.92 433.166C1403.67 432.688 1404.57 432.449 1405.59 432.449C1406.42 432.449 1407.16 432.603 1407.81 432.911C1408.46 433.214 1408.98 433.64 1409.38 434.189C1409.78 434.738 1410.02 435.38 1410.1 436.114H1408.03C1407.92 435.602 1407.66 435.162 1407.25 434.793C1406.85 434.423 1406.31 434.239 1405.63 434.239C1405.04 434.239 1404.52 434.395 1404.07 434.707C1403.63 435.015 1403.29 435.455 1403.04 436.028C1402.8 436.597 1402.67 437.269 1402.67 438.045C1402.67 438.841 1402.79 439.527 1403.04 440.105C1403.28 440.683 1403.62 441.13 1404.06 441.447C1404.5 441.765 1405.03 441.923 1405.63 441.923C1406.03 441.923 1406.4 441.85 1406.72 441.703C1407.05 441.552 1407.33 441.336 1407.55 441.057C1407.78 440.777 1407.94 440.441 1408.03 440.048H1410.1C1410.02 440.754 1409.79 441.384 1409.41 441.938C1409.02 442.491 1408.51 442.927 1407.87 443.244C1407.23 443.562 1406.48 443.72 1405.61 443.72ZM1413.71 447.591C1413.39 447.591 1413.1 447.565 1412.84 447.513C1412.58 447.465 1412.39 447.413 1412.26 447.357L1412.77 445.616C1413.16 445.721 1413.51 445.766 1413.81 445.751C1414.11 445.737 1414.38 445.624 1414.61 445.411C1414.85 445.197 1415.06 444.849 1415.24 444.366L1415.5 443.642L1411.51 432.591H1413.78L1416.54 441.057H1416.66L1419.42 432.591H1421.7L1417.2 444.956C1417 445.524 1416.73 446.005 1416.41 446.398C1416.09 446.795 1415.7 447.094 1415.26 447.293C1414.81 447.491 1414.3 447.591 1413.71 447.591Z" fill="black"/>
<defs>
<filter id="filter0_d_481_16677" x="1329.2" y="368.2" width="29.6" height="9.6" filterUnits="userSpaceOnUse" color-interpolation-filters="sRGB">
<feFlood flood-opacity="0" result="BackgroundImageFix"/>
<feColorMatrix in="SourceAlpha" type="matrix" values="0 0 0 0 0 0 0 0 0 0 0 0 0 0 0 0 0 0 127 0" result="hardAlpha"/>
<feOffset dy="0.8"/>
<feGaussianBlur stdDeviation="0.4"/>
<feComposite in2="hardAlpha" operator="out"/>
<feColorMatrix type="matrix" values="0 0 0 0 0 0 0 0 0 0 0 0 0 0 0 0 0 0 0.25 0"/>
<feBlend mode="normal" in2="BackgroundImageFix" result="effect1_dropShadow_481_16677"/>
<feBlend mode="normal" in="SourceGraphic" in2="effect1_dropShadow_481_16677" result="shape"/>
</filter>
<filter id="filter1_d_481_16677" x="957.2" y="368.2" width="29.6" height="9.6" filterUnits="userSpaceOnUse" color-interpolation-filters="sRGB">
<feFlood flood-opacity="0" result="BackgroundImageFix"/>
<feColorMatrix in="SourceAlpha" type="matrix" values="0 0 0 0 0 0 0 0 0 0 0 0 0 0 0 0 0 0 127 0" result="hardAlpha"/>
<feOffset dy="0.8"/>
<feGaussianBlur stdDeviation="0.4"/>
<feComposite in2="hardAlpha" operator="out"/>
<feColorMatrix type="matrix" values="0 0 0 0 0 0 0 0 0 0 0 0 0 0 0 0 0 0 0.25 0"/>
<feBlend mode="normal" in2="BackgroundImageFix" result="effect1_dropShadow_481_16677"/>
<feBlend mode="normal" in="SourceGraphic" in2="effect1_dropShadow_481_16677" result="shape"/>
</filter>
<filter id="filter2_d_481_16677" x="716.2" y="175" width="33.6" height="9.6" filterUnits="userSpaceOnUse" color-interpolation-filters="sRGB">
<feFlood flood-opacity="0" result="BackgroundImageFix"/>
<feColorMatrix in="SourceAlpha" type="matrix" values="0 0 0 0 0 0 0 0 0 0 0 0 0 0 0 0 0 0 127 0" result="hardAlpha"/>
<feOffset dy="0.8"/>
<feGaussianBlur stdDeviation="0.4"/>
<feComposite in2="hardAlpha" operator="out"/>
<feColorMatrix type="matrix" values="0 0 0 0 0 0 0 0 0 0 0 0 0 0 0 0 0 0 0.25 0"/>
<feBlend mode="normal" in2="BackgroundImageFix" result="effect1_dropShadow_481_16677"/>
<feBlend mode="normal" in="SourceGraphic" in2="effect1_dropShadow_481_16677" result="shape"/>
</filter>
<filter id="filter3_d_481_16677" x="236.2" y="293" width="29.6" height="9.6" filterUnits="userSpaceOnUse" color-interpolation-filters="sRGB">
<feFlood flood-opacity="0" result="BackgroundImageFix"/>
<feColorMatrix in="SourceAlpha" type="matrix" values="0 0 0 0 0 0 0 0 0 0 0 0 0 0 0 0 0 0 127 0" result="hardAlpha"/>
<feOffset dy="0.8"/>
<feGaussianBlur stdDeviation="0.4"/>
<feComposite in2="hardAlpha" operator="out"/>
<feColorMatrix type="matrix" values="0 0 0 0 0 0 0 0 0 0 0 0 0 0 0 0 0 0 0.25 0"/>
<feBlend mode="normal" in2="BackgroundImageFix" result="effect1_dropShadow_481_16677"/>
<feBlend mode="normal" in="SourceGraphic" in2="effect1_dropShadow_481_16677" result="shape"/>
</filter>
<clipPath id="clip0_481_16677">
<rect x="471" y="135" width="288" height="257" rx="10" fill="white"/>
</clipPath>
</defs>
</svg>
