<svg width="726" height="520" viewBox="0 0 726 520" fill="none" xmlns="http://www.w3.org/2000/svg">
<g clip-path="url(#clip0_481_15420)">
<rect width="725.76" height="520" rx="18" fill="white"/>
<rect x="0.480176" y="1.12813" width="724.4" height="38.4" rx="3.2" stroke="black" stroke-width="1.6"/>
<rect x="20.75" y="13.0781" width="78.5" height="14.5" rx="3.25" fill="#ECECEC" stroke="black" stroke-width="1.5"/>
<rect x="19.8" y="49.1281" width="507.4" height="46.4" rx="3.2" stroke="black" stroke-width="1.6"/>
<rect width="509" height="24" transform="translate(19 104.328)" fill="#ECECEC"/>
<rect x="19.8" y="105.128" width="507.4" height="22.4" rx="3.2" stroke="black" stroke-width="1.6"/>
<rect x="19.8" y="137.128" width="507.4" height="354.4" rx="3.2" stroke="black" stroke-width="1.6"/>
<rect x="35.4802" y="357.128" width="478.4" height="22.4" rx="3.2" fill="#ECECEC" stroke="black" stroke-width="1.6"/>
<rect x="35.4802" y="389.128" width="478.4" height="22.4" rx="3.2" fill="#ECECEC" stroke="black" stroke-width="1.6"/>
<rect x="35.4802" y="421.128" width="478.4" height="22.4" rx="3.2" fill="#ECECEC" stroke="black" stroke-width="1.6"/>
<rect x="35.4802" y="453.128" width="478.4" height="22.4" rx="3.2" fill="#ECECEC" stroke="black" stroke-width="1.6"/>
<rect x="536.8" y="49.1281" width="170.4" height="442.4" rx="3.2" stroke="black" stroke-width="1.6"/>
<rect x="552.75" y="72.75" width="138.5" height="14.5" rx="7.25" stroke="black" stroke-width="1.5"/>
<rect x="552.75" y="96.75" width="138.5" height="14.5" rx="7.25" stroke="black" stroke-width="1.5"/>
<circle cx="657.68" cy="24.3281" r="7.2" fill="#ECECEC" stroke="black" stroke-width="1.6"/>
<circle cx="679.88" cy="24.3279" r="6.2" fill="#D9D9D9"/>
<circle cx="679.88" cy="24.3279" r="6.2" stroke="black"/>
<circle cx="700.28" cy="24.3279" r="6.2" fill="#D9D9D9"/>
<circle cx="700.28" cy="24.3279" r="6.2" stroke="black"/>
<rect x="108.75" y="13.0781" width="162.5" height="14.5" rx="7.25" stroke="black" stroke-width="1.5"/>
<rect x="36.75" y="152.75" width="58.5" height="14.5" rx="7.25" fill="#D9D9D9" stroke="black" stroke-width="1.5"/>
<rect x="104.75" y="152.75" width="58.5" height="14.5" rx="7.25" stroke="black" stroke-width="1.5"/>
<rect x="172.75" y="152.75" width="58.5" height="14.5" rx="7.25" stroke="black" stroke-width="1.5"/>
<rect x="240.75" y="152.75" width="58.5" height="14.5" rx="7.25" stroke="black" stroke-width="1.5"/>
<rect x="308.75" y="152.75" width="58.5" height="14.5" rx="7.25" stroke="black" stroke-width="1.5"/>
<rect x="376.75" y="152.75" width="58.5" height="14.5" rx="7.25" stroke="black" stroke-width="1.5"/>
<rect x="444.75" y="152.75" width="58.5" height="14.5" rx="7.25" stroke="black" stroke-width="1.5"/>
</g>
<rect x="1.35" y="1.35" width="723.06" height="517.3" rx="16.65" stroke="black" stroke-width="2.7"/>
<defs>
<clipPath id="clip0_481_15420">
<rect width="725.76" height="520" rx="18" fill="white"/>
</clipPath>
</defs>
</svg>
