<svg width="246" height="297" viewBox="0 0 246 297" fill="none" xmlns="http://www.w3.org/2000/svg">
  <!-- Plane 5: Product strategy (bottom, darkest) -->
  <g id="plane-5">
    <path d="M122.775 225.432L245.549 254.706L122.775 283.981L0 254.706L122.775 225.432Z" fill="#1C5D46"/>
    <path d="M122.775 283.982L245.549 254.707V267.515L122.775 296.79L0 267.515V254.707L122.775 283.982Z" fill="#06281B"/>
  </g>
  <!-- Plane 4: Scope & constraints -->
  <g id="plane-4">
    <path d="M122.775 169.074L245.549 198.349L122.775 227.624L0 198.349L122.775 169.074Z" fill="#3A8A6E"/>
    <path d="M122.775 227.624L245.549 198.35V211.157L122.775 240.432L0 211.157V198.35L122.775 227.624Z" fill="#09381D"/>
  </g>
  <!-- Plane 3: Orchestration layer -->
  <g id="plane-3">
    <path d="M122.775 112.715L245.549 141.99L122.775 171.265L0 141.99L122.775 112.715Z" fill="#5DBB9A"/>
    <path d="M122.775 171.267L245.549 141.992V154.8L122.775 184.075L0 154.8V141.992L122.775 171.267Z" fill="#0C4E29"/>
  </g>
  <!-- Plane 2: Design systems -->
  <g id="plane-2">
    <path d="M122.775 56.3574L245.549 85.6323L122.775 114.907L0 85.6323L122.775 56.3574Z" fill="#91E0C4"/>
    <path d="M122.775 114.908L245.549 85.6328V98.4406L122.775 127.715L0 98.4406V85.6328L122.775 114.908Z" fill="#116931"/>
  </g>
  <!-- Plane 1: Experience layer (top, lightest) -->
  <g id="plane-1">
    <path d="M122.775 0L245.549 29.2748L122.775 58.5497L0 29.2748L122.775 0Z" fill="#B5FFE5"/>
    <path d="M122.775 58.5502L245.549 29.2754V42.0831L122.775 71.358L0 42.0831V29.2754L122.775 58.5502Z" fill="#157249"/>
  </g>
</svg>
