<svg width="692" height="271" viewBox="0 0 692 271" fill="none" xmlns="http://www.w3.org/2000/svg">
<rect x="283" y="50" width="166" height="35" rx="14" stroke="black" stroke-width="2" stroke-linecap="round"/>
<path d="M304.392 74L301.165 62.3636H303.012L305.279 71.375H305.387L307.745 62.3636H309.574L311.932 71.3807H312.04L314.302 62.3636H316.154L312.921 74H311.154L308.705 65.2841H308.614L306.165 74H304.392ZM319.123 74.1932C318.57 74.1932 318.07 74.0909 317.623 73.8864C317.176 73.678 316.822 73.3769 316.56 72.983C316.303 72.589 316.174 72.1061 316.174 71.5341C316.174 71.0417 316.269 70.6364 316.458 70.3182C316.647 70 316.903 69.7481 317.225 69.5625C317.547 69.3769 317.907 69.2367 318.305 69.142C318.702 69.0473 319.108 68.9754 319.52 68.9261C320.043 68.8655 320.467 68.8163 320.793 68.7784C321.119 68.7367 321.356 68.6705 321.503 68.5795C321.651 68.4886 321.725 68.3409 321.725 68.1364V68.0966C321.725 67.6004 321.585 67.2159 321.305 66.9432C321.028 66.6705 320.615 66.5341 320.066 66.5341C319.494 66.5341 319.043 66.661 318.714 66.9148C318.388 67.1648 318.162 67.4432 318.037 67.75L316.441 67.3864C316.63 66.8561 316.907 66.428 317.27 66.1023C317.638 65.7727 318.06 65.5341 318.537 65.3864C319.015 65.2348 319.517 65.1591 320.043 65.1591C320.392 65.1591 320.761 65.2008 321.151 65.2841C321.545 65.3636 321.912 65.5114 322.253 65.7273C322.598 65.9432 322.88 66.2519 323.1 66.6534C323.32 67.0511 323.43 67.5682 323.43 68.2045V74H321.77V72.8068H321.702C321.592 73.0265 321.428 73.2424 321.208 73.4545C320.988 73.6667 320.706 73.8428 320.361 73.983C320.017 74.1231 319.604 74.1932 319.123 74.1932ZM319.492 72.8295C319.962 72.8295 320.363 72.7367 320.697 72.5511C321.034 72.3655 321.289 72.1231 321.464 71.8239C321.642 71.5208 321.731 71.197 321.731 70.8523V69.7273C321.67 69.7879 321.553 69.8447 321.378 69.8977C321.208 69.947 321.013 69.9905 320.793 70.0284C320.573 70.0625 320.359 70.0947 320.151 70.125C319.943 70.1515 319.769 70.1742 319.628 70.1932C319.299 70.2348 318.998 70.3049 318.725 70.4034C318.456 70.5019 318.24 70.6439 318.077 70.8295C317.918 71.0114 317.839 71.2538 317.839 71.5568C317.839 71.9773 317.994 72.2955 318.305 72.5114C318.615 72.7235 319.011 72.8295 319.492 72.8295ZM327.215 68.8182V74H325.516V65.2727H327.147V66.6932H327.255C327.456 66.2311 327.77 65.8598 328.198 65.5795C328.63 65.2992 329.173 65.1591 329.829 65.1591C330.423 65.1591 330.944 65.2841 331.391 65.5341C331.838 65.7803 332.185 66.1477 332.431 66.6364C332.677 67.125 332.8 67.7292 332.8 68.4489V74H331.102V68.6534C331.102 68.0208 330.937 67.5265 330.607 67.1705C330.278 66.8106 329.825 66.6307 329.249 66.6307C328.855 66.6307 328.505 66.7159 328.198 66.8864C327.895 67.0568 327.655 67.3068 327.477 67.6364C327.302 67.9621 327.215 68.3561 327.215 68.8182ZM338.977 65.2727V66.6364H334.21V65.2727H338.977ZM335.488 63.1818H337.187V71.4375C337.187 71.767 337.236 72.0152 337.335 72.1818C337.433 72.3447 337.56 72.4564 337.715 72.517C337.874 72.5739 338.047 72.6023 338.232 72.6023C338.369 72.6023 338.488 72.5928 338.59 72.5739C338.693 72.5549 338.772 72.5398 338.829 72.5284L339.136 73.9318C339.037 73.9697 338.897 74.0076 338.715 74.0455C338.533 74.0871 338.306 74.1098 338.033 74.1136C337.587 74.1212 337.17 74.0417 336.783 73.875C336.397 73.7083 336.085 73.4508 335.846 73.1023C335.607 72.7538 335.488 72.3163 335.488 71.7898V63.1818ZM348.812 65.2727V66.6364H344.045V65.2727H348.812ZM345.324 63.1818H347.022V71.4375C347.022 71.767 347.072 72.0152 347.17 72.1818C347.269 72.3447 347.395 72.4564 347.551 72.517C347.71 72.5739 347.882 72.6023 348.068 72.6023C348.204 72.6023 348.324 72.5928 348.426 72.5739C348.528 72.5549 348.608 72.5398 348.664 72.5284L348.971 73.9318C348.873 73.9697 348.733 74.0076 348.551 74.0455C348.369 74.0871 348.142 74.1098 347.869 74.1136C347.422 74.1212 347.005 74.0417 346.619 73.875C346.233 73.7083 345.92 73.4508 345.681 73.1023C345.443 72.7538 345.324 72.3163 345.324 71.7898V63.1818ZM354.098 74.1761C353.28 74.1761 352.566 73.9886 351.956 73.6136C351.346 73.2386 350.872 72.714 350.535 72.0398C350.198 71.3655 350.03 70.5777 350.03 69.6761C350.03 68.7708 350.198 67.9792 350.535 67.3011C350.872 66.6231 351.346 66.0966 351.956 65.7216C352.566 65.3466 353.28 65.1591 354.098 65.1591C354.916 65.1591 355.63 65.3466 356.24 65.7216C356.85 66.0966 357.323 66.6231 357.66 67.3011C357.997 67.9792 358.166 68.7708 358.166 69.6761C358.166 70.5777 357.997 71.3655 357.66 72.0398C357.323 72.714 356.85 73.2386 356.24 73.6136C355.63 73.9886 354.916 74.1761 354.098 74.1761ZM354.103 72.75C354.634 72.75 355.073 72.6098 355.422 72.3295C355.77 72.0492 356.028 71.6761 356.194 71.2102C356.365 70.7443 356.45 70.2311 356.45 69.6705C356.45 69.1136 356.365 68.6023 356.194 68.1364C356.028 67.6667 355.77 67.2898 355.422 67.0057C355.073 66.7216 354.634 66.5795 354.103 66.5795C353.569 66.5795 353.126 66.7216 352.774 67.0057C352.425 67.2898 352.166 67.6667 351.996 68.1364C351.829 68.6023 351.746 69.1136 351.746 69.6705C351.746 70.2311 351.829 70.7443 351.996 71.2102C352.166 71.6761 352.425 72.0492 352.774 72.3295C353.126 72.6098 353.569 72.75 354.103 72.75ZM369.473 70.3807V65.2727H371.178V74H369.507V72.4886H369.416C369.216 72.9545 368.894 73.3428 368.45 73.6534C368.011 73.9602 367.464 74.1136 366.808 74.1136C366.248 74.1136 365.751 73.9905 365.32 73.7443C364.892 73.4943 364.555 73.125 364.308 72.6364C364.066 72.1477 363.945 71.5436 363.945 70.8239V65.2727H365.644V70.6193C365.644 71.214 365.808 71.6875 366.138 72.0398C366.467 72.392 366.895 72.5682 367.422 72.5682C367.74 72.5682 368.056 72.4886 368.371 72.3295C368.689 72.1705 368.952 71.9299 369.161 71.608C369.373 71.286 369.477 70.8769 369.473 70.3807ZM379.824 67.4034L378.284 67.6761C378.22 67.4792 378.118 67.2917 377.977 67.1136C377.841 66.9356 377.656 66.7898 377.421 66.6761C377.186 66.5625 376.892 66.5057 376.54 66.5057C376.059 66.5057 375.657 66.6136 375.335 66.8295C375.013 67.0417 374.852 67.3163 374.852 67.6534C374.852 67.9451 374.96 68.1799 375.176 68.358C375.392 68.536 375.741 68.6818 376.222 68.7955L377.608 69.1136C378.411 69.2992 379.01 69.5852 379.404 69.9716C379.798 70.358 379.995 70.8598 379.995 71.4773C379.995 72 379.843 72.4659 379.54 72.875C379.241 73.2803 378.822 73.5985 378.284 73.8295C377.75 74.0606 377.131 74.1761 376.426 74.1761C375.449 74.1761 374.652 73.9678 374.034 73.5511C373.417 73.1307 373.038 72.5341 372.898 71.7614L374.54 71.5114C374.642 71.9394 374.852 72.2633 375.171 72.483C375.489 72.6989 375.904 72.8068 376.415 72.8068C376.972 72.8068 377.417 72.6913 377.75 72.4602C378.084 72.2254 378.25 71.9394 378.25 71.6023C378.25 71.3295 378.148 71.1004 377.943 70.9148C377.743 70.7292 377.434 70.589 377.017 70.4943L375.54 70.1705C374.726 69.9848 374.123 69.6894 373.733 69.2841C373.347 68.8788 373.154 68.3655 373.154 67.7443C373.154 67.2292 373.298 66.7784 373.585 66.392C373.873 66.0057 374.271 65.7045 374.779 65.4886C375.286 65.2689 375.868 65.1591 376.523 65.1591C377.466 65.1591 378.209 65.3636 378.75 65.7727C379.292 66.178 379.65 66.7216 379.824 67.4034ZM385.448 74.1761C384.588 74.1761 383.847 73.9924 383.226 73.625C382.609 73.2538 382.131 72.733 381.794 72.0625C381.461 71.3883 381.294 70.5985 381.294 69.6932C381.294 68.7992 381.461 68.0114 381.794 67.3295C382.131 66.6477 382.601 66.1155 383.203 65.733C383.81 65.3504 384.518 65.1591 385.328 65.1591C385.821 65.1591 386.298 65.2405 386.76 65.4034C387.222 65.5663 387.637 65.822 388.005 66.1705C388.372 66.5189 388.662 66.9716 388.874 67.5284C389.086 68.0814 389.192 68.7538 389.192 69.5455V70.1477H382.255V68.875H387.527C387.527 68.428 387.436 68.0322 387.255 67.6875C387.073 67.339 386.817 67.0644 386.488 66.8636C386.162 66.6629 385.779 66.5625 385.34 66.5625C384.863 66.5625 384.446 66.6799 384.09 66.9148C383.738 67.1458 383.465 67.4489 383.272 67.8239C383.082 68.1951 382.988 68.5985 382.988 69.0341V70.0284C382.988 70.6117 383.09 71.108 383.294 71.517C383.503 71.9261 383.792 72.2386 384.164 72.4545C384.535 72.6667 384.969 72.7727 385.465 72.7727C385.787 72.7727 386.08 72.7273 386.346 72.6364C386.611 72.5417 386.84 72.4015 387.033 72.2159C387.226 72.0303 387.374 71.8011 387.476 71.5284L389.084 71.8182C388.955 72.2917 388.724 72.7064 388.391 73.0625C388.061 73.4148 387.647 73.6894 387.147 73.8864C386.65 74.0795 386.084 74.1761 385.448 74.1761ZM395.096 74V62.3636H399.244C400.149 62.3636 400.899 62.5284 401.494 62.858C402.088 63.1875 402.533 63.6383 402.829 64.2102C403.124 64.7784 403.272 65.4186 403.272 66.1307C403.272 66.8466 403.122 67.4905 402.823 68.0625C402.528 68.6307 402.081 69.0814 401.482 69.4148C400.887 69.7443 400.139 69.9091 399.238 69.9091H396.386V68.4205H399.079C399.651 68.4205 400.115 68.322 400.471 68.125C400.827 67.9242 401.088 67.6515 401.255 67.3068C401.422 66.9621 401.505 66.5701 401.505 66.1307C401.505 65.6913 401.422 65.3011 401.255 64.9602C401.088 64.6193 400.825 64.3523 400.465 64.1591C400.109 63.9659 399.639 63.8693 399.056 63.8693H396.851V74H395.096ZM406.717 62.3636V74H405.018V62.3636H406.717ZM414.355 70.3807V65.2727H416.059V74H414.389V72.4886H414.298C414.097 72.9545 413.775 73.3428 413.332 73.6534C412.892 73.9602 412.345 74.1136 411.69 74.1136C411.129 74.1136 410.633 73.9905 410.201 73.7443C409.773 73.4943 409.436 73.125 409.19 72.6364C408.947 72.1477 408.826 71.5436 408.826 70.8239V65.2727H410.525V70.6193C410.525 71.214 410.69 71.6875 411.019 72.0398C411.349 72.392 411.777 72.5682 412.303 72.5682C412.622 72.5682 412.938 72.4886 413.252 72.3295C413.57 72.1705 413.834 71.9299 414.042 71.608C414.254 71.286 414.358 70.8769 414.355 70.3807ZM418.166 74V65.2727H419.796V66.6932H419.904C420.086 66.2121 420.384 65.8371 420.796 65.5682C421.209 65.2955 421.704 65.1591 422.279 65.1591C422.863 65.1591 423.351 65.2955 423.745 65.5682C424.143 65.8409 424.437 66.2159 424.626 66.6932H424.717C424.925 66.2273 425.257 65.8561 425.711 65.5795C426.166 65.2992 426.707 65.1591 427.336 65.1591C428.128 65.1591 428.774 65.4072 429.274 65.9034C429.778 66.3996 430.029 67.1477 430.029 68.1477V74H428.331V68.3068C428.331 67.7159 428.17 67.2879 427.848 67.0227C427.526 66.7576 427.141 66.625 426.694 66.625C426.141 66.625 425.711 66.7955 425.404 67.1364C425.098 67.4735 424.944 67.9072 424.944 68.4375V74H423.251V68.1989C423.251 67.7254 423.103 67.3447 422.808 67.0568C422.512 66.7689 422.128 66.625 421.654 66.625C421.332 66.625 421.035 66.7102 420.762 66.8807C420.493 67.0473 420.276 67.2803 420.109 67.5795C419.946 67.8788 419.865 68.2254 419.865 68.6193V74H418.166Z" fill="black"/>
<rect x="477" y="50" width="184" height="35" rx="14" stroke="black" stroke-width="2" stroke-linecap="round"/>
<path d="M504.646 66.0398C504.536 65.6951 504.388 65.3864 504.203 65.1136C504.021 64.8371 503.803 64.6023 503.549 64.4091C503.295 64.2121 503.006 64.0625 502.68 63.9602C502.358 63.858 502.004 63.8068 501.617 63.8068C500.962 63.8068 500.371 63.9754 499.845 64.3125C499.318 64.6496 498.901 65.1439 498.595 65.7955C498.292 66.4432 498.14 67.2367 498.14 68.1761C498.14 69.1193 498.293 69.9167 498.6 70.5682C498.907 71.2197 499.328 71.714 499.862 72.0511C500.396 72.3883 501.004 72.5568 501.685 72.5568C502.318 72.5568 502.869 72.428 503.339 72.1705C503.812 71.9129 504.178 71.5492 504.435 71.0795C504.697 70.6061 504.828 70.0492 504.828 69.4091L505.282 69.4943H501.953V68.0455H506.526V69.3693C506.526 70.3466 506.318 71.1951 505.901 71.9148C505.489 72.6307 504.917 73.1837 504.185 73.5739C503.458 73.964 502.625 74.1591 501.685 74.1591C500.632 74.1591 499.708 73.9167 498.913 73.4318C498.121 72.947 497.504 72.2595 497.06 71.3693C496.617 70.4754 496.396 69.4148 496.396 68.1875C496.396 67.2595 496.525 66.4261 496.782 65.6875C497.04 64.9489 497.401 64.322 497.867 63.8068C498.337 63.2879 498.888 62.892 499.521 62.6193C500.157 62.3428 500.852 62.2045 501.606 62.2045C502.235 62.2045 502.82 62.2973 503.362 62.483C503.907 62.6686 504.392 62.9318 504.816 63.2727C505.244 63.6136 505.598 64.0189 505.879 64.4886C506.159 64.9545 506.348 65.4716 506.447 66.0398H504.646ZM512.119 74.1761C511.301 74.1761 510.587 73.9886 509.977 73.6136C509.367 73.2386 508.893 72.714 508.556 72.0398C508.219 71.3655 508.051 70.5777 508.051 69.6761C508.051 68.7708 508.219 67.9792 508.556 67.3011C508.893 66.6231 509.367 66.0966 509.977 65.7216C510.587 65.3466 511.301 65.1591 512.119 65.1591C512.937 65.1591 513.651 65.3466 514.261 65.7216C514.871 66.0966 515.344 66.6231 515.681 67.3011C516.018 67.9792 516.187 68.7708 516.187 69.6761C516.187 70.5777 516.018 71.3655 515.681 72.0398C515.344 72.714 514.871 73.2386 514.261 73.6136C513.651 73.9886 512.937 74.1761 512.119 74.1761ZM512.125 72.75C512.655 72.75 513.094 72.6098 513.443 72.3295C513.791 72.0492 514.049 71.6761 514.215 71.2102C514.386 70.7443 514.471 70.2311 514.471 69.6705C514.471 69.1136 514.386 68.6023 514.215 68.1364C514.049 67.6667 513.791 67.2898 513.443 67.0057C513.094 66.7216 512.655 66.5795 512.125 66.5795C511.59 66.5795 511.147 66.7216 510.795 67.0057C510.447 67.2898 510.187 67.6667 510.017 68.1364C509.85 68.6023 509.767 69.1136 509.767 69.6705C509.767 70.2311 509.85 70.7443 510.017 71.2102C510.187 71.6761 510.447 72.0492 510.795 72.3295C511.147 72.6098 511.59 72.75 512.125 72.75ZM520.447 74.1932C519.894 74.1932 519.394 74.0909 518.947 73.8864C518.5 73.678 518.146 73.3769 517.885 72.983C517.627 72.589 517.498 72.1061 517.498 71.5341C517.498 71.0417 517.593 70.6364 517.782 70.3182C517.972 70 518.227 69.7481 518.549 69.5625C518.871 69.3769 519.231 69.2367 519.629 69.142C520.027 69.0473 520.432 68.9754 520.845 68.9261C521.368 68.8655 521.792 68.8163 522.118 68.7784C522.443 68.7367 522.68 68.6705 522.828 68.5795C522.976 68.4886 523.049 68.3409 523.049 68.1364V68.0966C523.049 67.6004 522.909 67.2159 522.629 66.9432C522.352 66.6705 521.94 66.5341 521.39 66.5341C520.818 66.5341 520.368 66.661 520.038 66.9148C519.712 67.1648 519.487 67.4432 519.362 67.75L517.765 67.3864C517.955 66.8561 518.231 66.428 518.595 66.1023C518.962 65.7727 519.385 65.5341 519.862 65.3864C520.339 65.2348 520.841 65.1591 521.368 65.1591C521.716 65.1591 522.085 65.2008 522.476 65.2841C522.869 65.3636 523.237 65.5114 523.578 65.7273C523.923 65.9432 524.205 66.2519 524.424 66.6534C524.644 67.0511 524.754 67.5682 524.754 68.2045V74H523.095V72.8068H523.027C522.917 73.0265 522.752 73.2424 522.532 73.4545C522.313 73.6667 522.03 73.8428 521.686 73.983C521.341 74.1231 520.928 74.1932 520.447 74.1932ZM520.816 72.8295C521.286 72.8295 521.688 72.7367 522.021 72.5511C522.358 72.3655 522.614 72.1231 522.788 71.8239C522.966 71.5208 523.055 71.197 523.055 70.8523V69.7273C522.994 69.7879 522.877 69.8447 522.703 69.8977C522.532 69.947 522.337 69.9905 522.118 70.0284C521.898 70.0625 521.684 70.0947 521.476 70.125C521.267 70.1515 521.093 70.1742 520.953 70.1932C520.623 70.2348 520.322 70.3049 520.049 70.4034C519.78 70.5019 519.565 70.6439 519.402 70.8295C519.243 71.0114 519.163 71.2538 519.163 71.5568C519.163 71.9773 519.318 72.2955 519.629 72.5114C519.94 72.7235 520.335 72.8295 520.816 72.8295ZM528.54 62.3636V74H526.841V62.3636H528.54ZM535.791 68.3466V69.8182H530.632V68.3466H535.791ZM539.578 62.3636V74H537.879V62.3636H539.578ZM545.449 74.1761C544.589 74.1761 543.849 73.9924 543.228 73.625C542.61 73.2538 542.133 72.733 541.796 72.0625C541.462 71.3883 541.296 70.5985 541.296 69.6932C541.296 68.7992 541.462 68.0114 541.796 67.3295C542.133 66.6477 542.603 66.1155 543.205 65.733C543.811 65.3504 544.519 65.1591 545.33 65.1591C545.822 65.1591 546.299 65.2405 546.762 65.4034C547.224 65.5663 547.638 65.822 548.006 66.1705C548.373 66.5189 548.663 66.9716 548.875 67.5284C549.087 68.0814 549.193 68.7538 549.193 69.5455V70.1477H542.256V68.875H547.529C547.529 68.428 547.438 68.0322 547.256 67.6875C547.074 67.339 546.818 67.0644 546.489 66.8636C546.163 66.6629 545.781 66.5625 545.341 66.5625C544.864 66.5625 544.447 66.6799 544.091 66.9148C543.739 67.1458 543.466 67.4489 543.273 67.8239C543.084 68.1951 542.989 68.5985 542.989 69.0341V70.0284C542.989 70.6117 543.091 71.108 543.296 71.517C543.504 71.9261 543.794 72.2386 544.165 72.4545C544.536 72.6667 544.97 72.7727 545.466 72.7727C545.788 72.7727 546.082 72.7273 546.347 72.6364C546.612 72.5417 546.841 72.4015 547.034 72.2159C547.228 72.0303 547.375 71.8011 547.478 71.5284L549.085 71.8182C548.957 72.2917 548.726 72.7064 548.392 73.0625C548.063 73.4148 547.648 73.6894 547.148 73.8864C546.652 74.0795 546.085 74.1761 545.449 74.1761ZM554.169 74.1705C553.465 74.1705 552.836 73.9905 552.283 73.6307C551.734 73.267 551.302 72.75 550.988 72.0795C550.677 71.4053 550.522 70.5966 550.522 69.6534C550.522 68.7102 550.679 67.9034 550.993 67.233C551.311 66.5625 551.747 66.0492 552.3 65.6932C552.853 65.3371 553.48 65.1591 554.181 65.1591C554.722 65.1591 555.158 65.25 555.488 65.4318C555.821 65.6098 556.078 65.8182 556.26 66.0568C556.446 66.2955 556.59 66.5057 556.692 66.6875H556.794V62.3636H558.493V74H556.834V72.642H556.692C556.59 72.8277 556.442 73.0398 556.249 73.2784C556.06 73.517 555.798 73.7254 555.465 73.9034C555.132 74.0814 554.7 74.1705 554.169 74.1705ZM554.544 72.7216C555.033 72.7216 555.446 72.5928 555.783 72.3352C556.124 72.0739 556.382 71.7121 556.556 71.25C556.734 70.7879 556.823 70.25 556.823 69.6364C556.823 69.0303 556.736 68.5 556.561 68.0455C556.387 67.5909 556.132 67.2367 555.794 66.983C555.457 66.7292 555.041 66.6023 554.544 66.6023C554.033 66.6023 553.607 66.7348 553.266 67C552.925 67.2652 552.668 67.6269 552.493 68.0852C552.323 68.5436 552.238 69.0606 552.238 69.6364C552.238 70.2197 552.325 70.7443 552.499 71.2102C552.673 71.6761 552.931 72.0455 553.272 72.3182C553.616 72.5871 554.041 72.7216 554.544 72.7216ZM570.692 77.2727V72.642H570.59C570.488 72.8277 570.34 73.0398 570.147 73.2784C569.958 73.517 569.696 73.7254 569.363 73.9034C569.03 74.0814 568.598 74.1705 568.067 74.1705C567.363 74.1705 566.734 73.9905 566.181 73.6307C565.632 73.267 565.2 72.75 564.886 72.0795C564.575 71.4053 564.42 70.5966 564.42 69.6534C564.42 68.7102 564.577 67.9034 564.891 67.233C565.209 66.5625 565.645 66.0492 566.198 65.6932C566.751 65.3371 567.378 65.1591 568.079 65.1591C568.62 65.1591 569.056 65.25 569.386 65.4318C569.719 65.6098 569.976 65.8182 570.158 66.0568C570.344 66.2955 570.488 66.5057 570.59 66.6875H570.732V65.2727H572.391V77.2727H570.692ZM568.442 72.7216C568.931 72.7216 569.344 72.5928 569.681 72.3352C570.022 72.0739 570.28 71.7121 570.454 71.25C570.632 70.7879 570.721 70.25 570.721 69.6364C570.721 69.0303 570.634 68.5 570.459 68.0455C570.285 67.5909 570.03 67.2367 569.692 66.983C569.355 66.7292 568.939 66.6023 568.442 66.6023C567.931 66.6023 567.505 66.7348 567.164 67C566.823 67.2652 566.566 67.6269 566.391 68.0852C566.221 68.5436 566.136 69.0606 566.136 69.6364C566.136 70.2197 566.223 70.7443 566.397 71.2102C566.571 71.6761 566.829 72.0455 567.17 72.3182C567.514 72.5871 567.939 72.7216 568.442 72.7216ZM580.028 70.3807V65.2727H581.732V74H580.062V72.4886H579.971C579.77 72.9545 579.448 73.3428 579.005 73.6534C578.566 73.9602 578.018 74.1136 577.363 74.1136C576.802 74.1136 576.306 73.9905 575.874 73.7443C575.446 73.4943 575.109 73.125 574.863 72.6364C574.621 72.1477 574.499 71.5436 574.499 70.8239V65.2727H576.198V70.6193C576.198 71.214 576.363 71.6875 576.693 72.0398C577.022 72.392 577.45 72.5682 577.977 72.5682C578.295 72.5682 578.611 72.4886 578.925 72.3295C579.244 72.1705 579.507 71.9299 579.715 71.608C579.927 71.286 580.032 70.8769 580.028 70.3807ZM583.839 74V65.2727H585.538V74H583.839ZM584.697 63.9261C584.401 63.9261 584.148 63.8277 583.936 63.6307C583.727 63.4299 583.623 63.1913 583.623 62.9148C583.623 62.6345 583.727 62.3958 583.936 62.1989C584.148 61.9981 584.401 61.8977 584.697 61.8977C584.992 61.8977 585.244 61.9981 585.453 62.1989C585.665 62.3958 585.771 62.6345 585.771 62.9148C585.771 63.1913 585.665 63.4299 585.453 63.6307C585.244 63.8277 584.992 63.9261 584.697 63.9261ZM591.323 74.1761C590.479 74.1761 589.752 73.9848 589.142 73.6023C588.536 73.2159 588.07 72.6837 587.744 72.0057C587.418 71.3277 587.255 70.5511 587.255 69.6761C587.255 68.7898 587.422 68.0076 587.755 67.3295C588.089 66.6477 588.558 66.1155 589.164 65.733C589.77 65.3504 590.484 65.1591 591.306 65.1591C591.969 65.1591 592.56 65.2822 593.079 65.5284C593.598 65.7708 594.017 66.1117 594.335 66.5511C594.657 66.9905 594.848 67.5038 594.909 68.0909H593.255C593.164 67.6818 592.956 67.3295 592.63 67.0341C592.308 66.7386 591.877 66.5909 591.335 66.5909C590.861 66.5909 590.447 66.7159 590.091 66.9659C589.738 67.2121 589.464 67.5644 589.267 68.0227C589.07 68.4773 588.971 69.0152 588.971 69.6364C588.971 70.2727 589.068 70.822 589.261 71.2841C589.454 71.7462 589.727 72.1042 590.079 72.358C590.435 72.6117 590.854 72.7386 591.335 72.7386C591.657 72.7386 591.948 72.6799 592.21 72.5625C592.475 72.4413 592.697 72.2689 592.875 72.0455C593.056 71.822 593.183 71.553 593.255 71.2386H594.909C594.848 71.803 594.664 72.3068 594.358 72.75C594.051 73.1932 593.64 73.5417 593.125 73.7955C592.613 74.0492 592.013 74.1761 591.323 74.1761ZM598.112 71.0398L598.101 68.9659H598.396L601.873 65.2727H603.907L599.942 69.4773H599.674L598.112 71.0398ZM596.549 74V62.3636H598.248V74H596.549ZM602.061 74L598.936 69.8523L600.106 68.6648L604.146 74H602.061ZM611.037 62.3636V74H609.338V62.3636H611.037ZM613.146 74V65.2727H614.845V74H613.146ZM614.004 63.9261C613.709 63.9261 613.455 63.8277 613.243 63.6307C613.035 63.4299 612.931 63.1913 612.931 62.9148C612.931 62.6345 613.035 62.3958 613.243 62.1989C613.455 61.9981 613.709 61.8977 614.004 61.8977C614.3 61.8977 614.552 61.9981 614.76 62.1989C614.972 62.3958 615.078 62.6345 615.078 62.9148C615.078 63.1913 614.972 63.4299 614.76 63.6307C614.552 63.8277 614.3 63.9261 614.004 63.9261ZM618.654 68.8182V74H616.955V65.2727H618.586V66.6932H618.693C618.894 66.2311 619.209 65.8598 619.637 65.5795C620.068 65.2992 620.612 65.1591 621.267 65.1591C621.862 65.1591 622.383 65.2841 622.83 65.5341C623.277 65.7803 623.623 66.1477 623.87 66.6364C624.116 67.125 624.239 67.7292 624.239 68.4489V74H622.54V68.6534C622.54 68.0208 622.375 67.5265 622.046 67.1705C621.716 66.8106 621.264 66.6307 620.688 66.6307C620.294 66.6307 619.943 66.7159 619.637 66.8864C619.334 67.0568 619.093 67.3068 618.915 67.6364C618.741 67.9621 618.654 68.3561 618.654 68.8182ZM627.904 71.0398L627.892 68.9659H628.188L631.665 65.2727H633.699L629.733 69.4773H629.466L627.904 71.0398ZM626.341 74V62.3636H628.04V74H626.341ZM631.853 74L628.728 69.8523L629.898 68.6648L633.938 74H631.853ZM641.611 67.4034L640.072 67.6761C640.007 67.4792 639.905 67.2917 639.765 67.1136C639.628 66.9356 639.443 66.7898 639.208 66.6761C638.973 66.5625 638.68 66.5057 638.327 66.5057C637.846 66.5057 637.445 66.6136 637.123 66.8295C636.801 67.0417 636.64 67.3163 636.64 67.6534C636.64 67.9451 636.748 68.1799 636.964 68.358C637.18 68.536 637.528 68.6818 638.009 68.7955L639.395 69.1136C640.199 69.2992 640.797 69.5852 641.191 69.9716C641.585 70.358 641.782 70.8598 641.782 71.4773C641.782 72 641.63 72.4659 641.327 72.875C641.028 73.2803 640.609 73.5985 640.072 73.8295C639.538 74.0606 638.918 74.1761 638.214 74.1761C637.236 74.1761 636.439 73.9678 635.822 73.5511C635.204 73.1307 634.825 72.5341 634.685 71.7614L636.327 71.5114C636.43 71.9394 636.64 72.2633 636.958 72.483C637.276 72.6989 637.691 72.8068 638.202 72.8068C638.759 72.8068 639.204 72.6913 639.538 72.4602C639.871 72.2254 640.038 71.9394 640.038 71.6023C640.038 71.3295 639.935 71.1004 639.731 70.9148C639.53 70.7292 639.221 70.589 638.805 70.4943L637.327 70.1705C636.513 69.9848 635.911 69.6894 635.52 69.2841C635.134 68.8788 634.941 68.3655 634.941 67.7443C634.941 67.2292 635.085 66.7784 635.373 66.392C635.661 66.0057 636.058 65.7045 636.566 65.4886C637.074 65.2689 637.655 65.1591 638.31 65.1591C639.253 65.1591 639.996 65.3636 640.538 65.7727C641.079 66.178 641.437 66.7216 641.611 67.4034Z" fill="black"/>
<rect x="477" y="118" width="184" height="35" rx="14" stroke="black" stroke-width="2" stroke-linecap="round"/>
<path d="M527.413 134.04C527.303 133.695 527.155 133.386 526.969 133.114C526.788 132.837 526.57 132.602 526.316 132.409C526.062 132.212 525.772 132.062 525.447 131.96C525.125 131.858 524.77 131.807 524.384 131.807C523.729 131.807 523.138 131.975 522.611 132.312C522.085 132.65 521.668 133.144 521.361 133.795C521.058 134.443 520.907 135.237 520.907 136.176C520.907 137.119 521.06 137.917 521.367 138.568C521.674 139.22 522.094 139.714 522.628 140.051C523.163 140.388 523.77 140.557 524.452 140.557C525.085 140.557 525.636 140.428 526.106 140.17C526.579 139.913 526.945 139.549 527.202 139.08C527.464 138.606 527.594 138.049 527.594 137.409L528.049 137.494H524.719V136.045H529.293V137.369C529.293 138.347 529.085 139.195 528.668 139.915C528.255 140.631 527.683 141.184 526.952 141.574C526.225 141.964 525.392 142.159 524.452 142.159C523.399 142.159 522.475 141.917 521.68 141.432C520.888 140.947 520.27 140.259 519.827 139.369C519.384 138.475 519.163 137.415 519.163 136.188C519.163 135.259 519.291 134.426 519.549 133.688C519.806 132.949 520.168 132.322 520.634 131.807C521.104 131.288 521.655 130.892 522.288 130.619C522.924 130.343 523.619 130.205 524.373 130.205C525.002 130.205 525.587 130.297 526.128 130.483C526.674 130.669 527.159 130.932 527.583 131.273C528.011 131.614 528.365 132.019 528.645 132.489C528.926 132.955 529.115 133.472 529.214 134.04H527.413ZM536.738 138.381V133.273H538.443V142H536.772V140.489H536.681C536.48 140.955 536.158 141.343 535.715 141.653C535.276 141.96 534.728 142.114 534.073 142.114C533.513 142.114 533.016 141.991 532.585 141.744C532.157 141.494 531.819 141.125 531.573 140.636C531.331 140.148 531.21 139.544 531.21 138.824V133.273H532.908V138.619C532.908 139.214 533.073 139.687 533.403 140.04C533.732 140.392 534.16 140.568 534.687 140.568C535.005 140.568 535.321 140.489 535.636 140.33C535.954 140.17 536.217 139.93 536.425 139.608C536.638 139.286 536.742 138.877 536.738 138.381ZM540.549 142V133.273H542.248V142H540.549ZM541.407 131.926C541.112 131.926 540.858 131.828 540.646 131.631C540.437 131.43 540.333 131.191 540.333 130.915C540.333 130.634 540.437 130.396 540.646 130.199C540.858 129.998 541.112 129.898 541.407 129.898C541.703 129.898 541.954 129.998 542.163 130.199C542.375 130.396 542.481 130.634 542.481 130.915C542.481 131.191 542.375 131.43 542.163 131.631C541.954 131.828 541.703 131.926 541.407 131.926ZM547.625 142.17C546.92 142.17 546.291 141.991 545.738 141.631C545.189 141.267 544.757 140.75 544.443 140.08C544.132 139.405 543.977 138.597 543.977 137.653C543.977 136.71 544.134 135.903 544.448 135.233C544.767 134.562 545.202 134.049 545.755 133.693C546.308 133.337 546.935 133.159 547.636 133.159C548.178 133.159 548.613 133.25 548.943 133.432C549.276 133.61 549.534 133.818 549.715 134.057C549.901 134.295 550.045 134.506 550.147 134.688H550.25V130.364H551.948V142H550.289V140.642H550.147C550.045 140.828 549.897 141.04 549.704 141.278C549.515 141.517 549.253 141.725 548.92 141.903C548.587 142.081 548.155 142.17 547.625 142.17ZM548 140.722C548.488 140.722 548.901 140.593 549.238 140.335C549.579 140.074 549.837 139.712 550.011 139.25C550.189 138.788 550.278 138.25 550.278 137.636C550.278 137.03 550.191 136.5 550.017 136.045C549.842 135.591 549.587 135.237 549.25 134.983C548.912 134.729 548.496 134.602 548 134.602C547.488 134.602 547.062 134.735 546.721 135C546.38 135.265 546.123 135.627 545.948 136.085C545.778 136.544 545.693 137.061 545.693 137.636C545.693 138.22 545.78 138.744 545.954 139.21C546.128 139.676 546.386 140.045 546.727 140.318C547.072 140.587 547.496 140.722 548 140.722ZM557.959 142.176C557.099 142.176 556.358 141.992 555.737 141.625C555.12 141.254 554.642 140.733 554.305 140.062C553.972 139.388 553.805 138.598 553.805 137.693C553.805 136.799 553.972 136.011 554.305 135.33C554.642 134.648 555.112 134.116 555.714 133.733C556.32 133.35 557.029 133.159 557.839 133.159C558.332 133.159 558.809 133.241 559.271 133.403C559.733 133.566 560.148 133.822 560.515 134.17C560.883 134.519 561.173 134.972 561.385 135.528C561.597 136.081 561.703 136.754 561.703 137.545V138.148H554.765V136.875H560.038C560.038 136.428 559.947 136.032 559.765 135.688C559.584 135.339 559.328 135.064 558.998 134.864C558.673 134.663 558.29 134.562 557.851 134.562C557.373 134.562 556.957 134.68 556.601 134.915C556.248 135.146 555.976 135.449 555.782 135.824C555.593 136.195 555.498 136.598 555.498 137.034V138.028C555.498 138.612 555.601 139.108 555.805 139.517C556.013 139.926 556.303 140.239 556.674 140.455C557.046 140.667 557.479 140.773 557.976 140.773C558.298 140.773 558.591 140.727 558.856 140.636C559.121 140.542 559.351 140.402 559.544 140.216C559.737 140.03 559.885 139.801 559.987 139.528L561.595 139.818C561.466 140.292 561.235 140.706 560.902 141.062C560.572 141.415 560.157 141.689 559.657 141.886C559.161 142.08 558.595 142.176 557.959 142.176ZM566.679 142.17C565.974 142.17 565.346 141.991 564.792 141.631C564.243 141.267 563.811 140.75 563.497 140.08C563.186 139.405 563.031 138.597 563.031 137.653C563.031 136.71 563.188 135.903 563.503 135.233C563.821 134.562 564.256 134.049 564.81 133.693C565.363 133.337 565.989 133.159 566.69 133.159C567.232 133.159 567.667 133.25 567.997 133.432C568.33 133.61 568.588 133.818 568.77 134.057C568.955 134.295 569.099 134.506 569.202 134.688H569.304V130.364H571.003V142H569.344V140.642H569.202C569.099 140.828 568.952 141.04 568.758 141.278C568.569 141.517 568.308 141.725 567.974 141.903C567.641 142.081 567.209 142.17 566.679 142.17ZM567.054 140.722C567.542 140.722 567.955 140.593 568.292 140.335C568.633 140.074 568.891 139.712 569.065 139.25C569.243 138.788 569.332 138.25 569.332 137.636C569.332 137.03 569.245 136.5 569.071 136.045C568.897 135.591 568.641 135.237 568.304 134.983C567.967 134.729 567.55 134.602 567.054 134.602C566.542 134.602 566.116 134.735 565.775 135C565.435 135.265 565.177 135.627 565.003 136.085C564.832 136.544 564.747 137.061 564.747 137.636C564.747 138.22 564.834 138.744 565.008 139.21C565.183 139.676 565.44 140.045 565.781 140.318C566.126 140.587 566.55 140.722 567.054 140.722ZM581.384 133.273V134.636H576.617V133.273H581.384ZM577.895 131.182H579.594V139.438C579.594 139.767 579.643 140.015 579.742 140.182C579.84 140.345 579.967 140.456 580.122 140.517C580.281 140.574 580.454 140.602 580.639 140.602C580.776 140.602 580.895 140.593 580.997 140.574C581.1 140.555 581.179 140.54 581.236 140.528L581.543 141.932C581.444 141.97 581.304 142.008 581.122 142.045C580.94 142.087 580.713 142.11 580.44 142.114C579.994 142.121 579.577 142.042 579.19 141.875C578.804 141.708 578.492 141.451 578.253 141.102C578.014 140.754 577.895 140.316 577.895 139.79V131.182ZM583.087 142V133.273H584.729V134.659H584.82C584.979 134.189 585.259 133.82 585.661 133.551C586.066 133.278 586.524 133.142 587.036 133.142C587.142 133.142 587.267 133.146 587.411 133.153C587.559 133.161 587.674 133.17 587.757 133.182V134.807C587.689 134.788 587.568 134.767 587.394 134.744C587.219 134.718 587.045 134.705 586.871 134.705C586.469 134.705 586.112 134.79 585.797 134.96C585.487 135.127 585.24 135.36 585.059 135.659C584.877 135.955 584.786 136.292 584.786 136.67V142H583.087ZM589.052 142V133.273H590.75V142H589.052ZM589.91 131.926C589.614 131.926 589.36 131.828 589.148 131.631C588.94 131.43 588.836 131.191 588.836 130.915C588.836 130.634 588.94 130.396 589.148 130.199C589.36 129.998 589.614 129.898 589.91 129.898C590.205 129.898 590.457 129.998 590.665 130.199C590.877 130.396 590.983 130.634 590.983 130.915C590.983 131.191 590.877 131.43 590.665 131.631C590.457 131.828 590.205 131.926 589.91 131.926ZM595.4 142.193C594.847 142.193 594.347 142.091 593.9 141.886C593.453 141.678 593.099 141.377 592.837 140.983C592.58 140.589 592.451 140.106 592.451 139.534C592.451 139.042 592.546 138.636 592.735 138.318C592.924 138 593.18 137.748 593.502 137.562C593.824 137.377 594.184 137.237 594.582 137.142C594.979 137.047 595.385 136.975 595.797 136.926C596.32 136.866 596.744 136.816 597.07 136.778C597.396 136.737 597.633 136.67 597.78 136.58C597.928 136.489 598.002 136.341 598.002 136.136V136.097C598.002 135.6 597.862 135.216 597.582 134.943C597.305 134.67 596.892 134.534 596.343 134.534C595.771 134.534 595.32 134.661 594.991 134.915C594.665 135.165 594.439 135.443 594.314 135.75L592.718 135.386C592.907 134.856 593.184 134.428 593.547 134.102C593.915 133.773 594.337 133.534 594.814 133.386C595.292 133.235 595.794 133.159 596.32 133.159C596.669 133.159 597.038 133.201 597.428 133.284C597.822 133.364 598.189 133.511 598.53 133.727C598.875 133.943 599.157 134.252 599.377 134.653C599.597 135.051 599.707 135.568 599.707 136.205V142H598.047V140.807H597.979C597.869 141.027 597.705 141.242 597.485 141.455C597.265 141.667 596.983 141.843 596.638 141.983C596.294 142.123 595.881 142.193 595.4 142.193ZM595.769 140.83C596.239 140.83 596.64 140.737 596.974 140.551C597.311 140.366 597.566 140.123 597.741 139.824C597.919 139.521 598.008 139.197 598.008 138.852V137.727C597.947 137.788 597.83 137.845 597.655 137.898C597.485 137.947 597.29 137.991 597.07 138.028C596.85 138.062 596.636 138.095 596.428 138.125C596.22 138.152 596.046 138.174 595.905 138.193C595.576 138.235 595.275 138.305 595.002 138.403C594.733 138.502 594.517 138.644 594.354 138.83C594.195 139.011 594.116 139.254 594.116 139.557C594.116 139.977 594.271 140.295 594.582 140.511C594.892 140.723 595.288 140.83 595.769 140.83ZM605.452 145.455C604.759 145.455 604.163 145.364 603.663 145.182C603.166 145 602.761 144.759 602.447 144.46C602.132 144.161 601.897 143.833 601.742 143.477L603.202 142.875C603.305 143.042 603.441 143.218 603.611 143.403C603.786 143.593 604.021 143.754 604.316 143.886C604.615 144.019 605 144.085 605.469 144.085C606.113 144.085 606.646 143.928 607.066 143.614C607.486 143.303 607.697 142.807 607.697 142.125V140.409H607.589C607.486 140.595 607.339 140.801 607.146 141.028C606.956 141.256 606.695 141.453 606.361 141.619C606.028 141.786 605.594 141.869 605.06 141.869C604.371 141.869 603.75 141.708 603.197 141.386C602.647 141.061 602.212 140.581 601.89 139.949C601.572 139.312 601.413 138.53 601.413 137.602C601.413 136.674 601.57 135.879 601.884 135.216C602.202 134.553 602.638 134.045 603.191 133.693C603.744 133.337 604.371 133.159 605.072 133.159C605.613 133.159 606.051 133.25 606.384 133.432C606.718 133.61 606.977 133.818 607.163 134.057C607.352 134.295 607.498 134.506 607.6 134.688H607.725V133.273H609.39V142.193C609.39 142.943 609.216 143.559 608.867 144.04C608.519 144.521 608.047 144.877 607.452 145.108C606.861 145.339 606.195 145.455 605.452 145.455ZM605.435 140.46C605.924 140.46 606.337 140.347 606.674 140.119C607.015 139.888 607.272 139.559 607.447 139.131C607.625 138.699 607.714 138.182 607.714 137.58C607.714 136.992 607.627 136.475 607.452 136.028C607.278 135.581 607.022 135.233 606.685 134.983C606.348 134.729 605.932 134.602 605.435 134.602C604.924 134.602 604.498 134.735 604.157 135C603.816 135.261 603.558 135.617 603.384 136.068C603.214 136.519 603.129 137.023 603.129 137.58C603.129 138.152 603.216 138.653 603.39 139.085C603.564 139.517 603.822 139.854 604.163 140.097C604.507 140.339 604.932 140.46 605.435 140.46ZM615.254 142.176C614.394 142.176 613.653 141.992 613.032 141.625C612.415 141.254 611.937 140.733 611.6 140.062C611.267 139.388 611.1 138.598 611.1 137.693C611.1 136.799 611.267 136.011 611.6 135.33C611.937 134.648 612.407 134.116 613.009 133.733C613.615 133.35 614.324 133.159 615.134 133.159C615.627 133.159 616.104 133.241 616.566 133.403C617.028 133.566 617.443 133.822 617.81 134.17C618.178 134.519 618.468 134.972 618.68 135.528C618.892 136.081 618.998 136.754 618.998 137.545V138.148H612.06V136.875H617.333C617.333 136.428 617.242 136.032 617.06 135.688C616.879 135.339 616.623 135.064 616.293 134.864C615.968 134.663 615.585 134.562 615.146 134.562C614.668 134.562 614.252 134.68 613.896 134.915C613.543 135.146 613.271 135.449 613.078 135.824C612.888 136.195 612.793 136.598 612.793 137.034V138.028C612.793 138.612 612.896 139.108 613.1 139.517C613.309 139.926 613.598 140.239 613.97 140.455C614.341 140.667 614.774 140.773 615.271 140.773C615.593 140.773 615.886 140.727 616.151 140.636C616.417 140.542 616.646 140.402 616.839 140.216C617.032 140.03 617.18 139.801 617.282 139.528L618.89 139.818C618.761 140.292 618.53 140.706 618.197 141.062C617.867 141.415 617.453 141.689 616.953 141.886C616.456 142.08 615.89 142.176 615.254 142.176Z" fill="black"/>
<rect x="477" y="186" width="184" height="35" rx="14" stroke="black" stroke-width="2" stroke-linecap="round"/>
<path d="M513.4 210H509.633V198.364H513.52C514.66 198.364 515.639 198.597 516.457 199.062C517.275 199.525 517.902 200.189 518.338 201.057C518.777 201.92 518.997 202.956 518.997 204.165C518.997 205.377 518.775 206.419 518.332 207.29C517.893 208.161 517.256 208.831 516.423 209.301C515.59 209.767 514.582 210 513.4 210ZM511.389 208.466H513.304C514.19 208.466 514.927 208.299 515.514 207.966C516.101 207.629 516.541 207.142 516.832 206.506C517.124 205.866 517.27 205.085 517.27 204.165C517.27 203.252 517.124 202.477 516.832 201.841C516.544 201.205 516.114 200.722 515.542 200.392C514.97 200.062 514.26 199.898 513.412 199.898H511.389V208.466ZM520.868 210V201.273H522.567V210H520.868ZM521.726 199.926C521.43 199.926 521.177 199.828 520.964 199.631C520.756 199.43 520.652 199.191 520.652 198.915C520.652 198.634 520.756 198.396 520.964 198.199C521.177 197.998 521.43 197.898 521.726 197.898C522.021 197.898 522.273 197.998 522.481 198.199C522.694 198.396 522.8 198.634 522.8 198.915C522.8 199.191 522.694 199.43 522.481 199.631C522.273 199.828 522.021 199.926 521.726 199.926ZM531.216 203.403L529.676 203.676C529.612 203.479 529.51 203.292 529.369 203.114C529.233 202.936 529.047 202.79 528.813 202.676C528.578 202.562 528.284 202.506 527.932 202.506C527.451 202.506 527.049 202.614 526.727 202.83C526.405 203.042 526.244 203.316 526.244 203.653C526.244 203.945 526.352 204.18 526.568 204.358C526.784 204.536 527.133 204.682 527.614 204.795L529 205.114C529.803 205.299 530.402 205.585 530.796 205.972C531.189 206.358 531.386 206.86 531.386 207.477C531.386 208 531.235 208.466 530.932 208.875C530.633 209.28 530.214 209.598 529.676 209.83C529.142 210.061 528.523 210.176 527.818 210.176C526.841 210.176 526.044 209.968 525.426 209.551C524.809 209.131 524.43 208.534 524.29 207.761L525.932 207.511C526.034 207.939 526.244 208.263 526.563 208.483C526.881 208.699 527.296 208.807 527.807 208.807C528.364 208.807 528.809 208.691 529.142 208.46C529.475 208.225 529.642 207.939 529.642 207.602C529.642 207.33 529.54 207.1 529.335 206.915C529.135 206.729 528.826 206.589 528.409 206.494L526.932 206.17C526.118 205.985 525.515 205.689 525.125 205.284C524.739 204.879 524.546 204.366 524.546 203.744C524.546 203.229 524.689 202.778 524.977 202.392C525.265 202.006 525.663 201.705 526.171 201.489C526.678 201.269 527.26 201.159 527.915 201.159C528.858 201.159 529.6 201.364 530.142 201.773C530.684 202.178 531.042 202.722 531.216 203.403ZM536.754 210.176C535.91 210.176 535.183 209.985 534.573 209.602C533.967 209.216 533.501 208.684 533.175 208.006C532.849 207.328 532.686 206.551 532.686 205.676C532.686 204.79 532.853 204.008 533.186 203.33C533.52 202.648 533.989 202.116 534.595 201.733C535.201 201.35 535.915 201.159 536.737 201.159C537.4 201.159 537.991 201.282 538.51 201.528C539.029 201.771 539.448 202.112 539.766 202.551C540.088 202.991 540.279 203.504 540.34 204.091H538.686C538.595 203.682 538.387 203.33 538.061 203.034C537.739 202.739 537.308 202.591 536.766 202.591C536.292 202.591 535.878 202.716 535.522 202.966C535.169 203.212 534.895 203.564 534.698 204.023C534.501 204.477 534.402 205.015 534.402 205.636C534.402 206.273 534.499 206.822 534.692 207.284C534.885 207.746 535.158 208.104 535.51 208.358C535.866 208.612 536.285 208.739 536.766 208.739C537.088 208.739 537.379 208.68 537.641 208.562C537.906 208.441 538.128 208.269 538.306 208.045C538.487 207.822 538.614 207.553 538.686 207.239H540.34C540.279 207.803 540.095 208.307 539.789 208.75C539.482 209.193 539.071 209.542 538.556 209.795C538.044 210.049 537.444 210.176 536.754 210.176ZM545.657 210.176C544.838 210.176 544.124 209.989 543.515 209.614C542.905 209.239 542.431 208.714 542.094 208.04C541.757 207.366 541.588 206.578 541.588 205.676C541.588 204.771 541.757 203.979 542.094 203.301C542.431 202.623 542.905 202.097 543.515 201.722C544.124 201.347 544.838 201.159 545.657 201.159C546.475 201.159 547.189 201.347 547.799 201.722C548.409 202.097 548.882 202.623 549.219 203.301C549.556 203.979 549.725 204.771 549.725 205.676C549.725 206.578 549.556 207.366 549.219 208.04C548.882 208.714 548.409 209.239 547.799 209.614C547.189 209.989 546.475 210.176 545.657 210.176ZM545.662 208.75C546.193 208.75 546.632 208.61 546.98 208.33C547.329 208.049 547.587 207.676 547.753 207.21C547.924 206.744 548.009 206.231 548.009 205.67C548.009 205.114 547.924 204.602 547.753 204.136C547.587 203.667 547.329 203.29 546.98 203.006C546.632 202.722 546.193 202.58 545.662 202.58C545.128 202.58 544.685 202.722 544.333 203.006C543.984 203.29 543.725 203.667 543.554 204.136C543.388 204.602 543.304 205.114 543.304 205.67C543.304 206.231 543.388 206.744 543.554 207.21C543.725 207.676 543.984 208.049 544.333 208.33C544.685 208.61 545.128 208.75 545.662 208.75ZM558.614 201.273L555.449 210H553.631L550.461 201.273H552.285L554.495 207.989H554.586L556.79 201.273H558.614ZM563.499 210.176C562.639 210.176 561.899 209.992 561.278 209.625C560.66 209.254 560.183 208.733 559.846 208.062C559.512 207.388 559.346 206.598 559.346 205.693C559.346 204.799 559.512 204.011 559.846 203.33C560.183 202.648 560.653 202.116 561.255 201.733C561.861 201.35 562.569 201.159 563.38 201.159C563.872 201.159 564.35 201.241 564.812 201.403C565.274 201.566 565.689 201.822 566.056 202.17C566.423 202.519 566.713 202.972 566.925 203.528C567.137 204.081 567.244 204.754 567.244 205.545V206.148H560.306V204.875H565.579C565.579 204.428 565.488 204.032 565.306 203.688C565.124 203.339 564.869 203.064 564.539 202.864C564.213 202.663 563.831 202.562 563.391 202.562C562.914 202.562 562.497 202.68 562.141 202.915C561.789 203.146 561.516 203.449 561.323 203.824C561.134 204.195 561.039 204.598 561.039 205.034V206.028C561.039 206.612 561.141 207.108 561.346 207.517C561.554 207.926 561.844 208.239 562.215 208.455C562.586 208.667 563.02 208.773 563.516 208.773C563.838 208.773 564.132 208.727 564.397 208.636C564.662 208.542 564.891 208.402 565.084 208.216C565.278 208.03 565.425 207.801 565.528 207.528L567.136 207.818C567.007 208.292 566.776 208.706 566.442 209.062C566.113 209.415 565.698 209.689 565.198 209.886C564.702 210.08 564.136 210.176 563.499 210.176ZM568.952 210V201.273H570.595V202.659H570.685C570.845 202.189 571.125 201.82 571.526 201.551C571.932 201.278 572.39 201.142 572.901 201.142C573.007 201.142 573.132 201.146 573.276 201.153C573.424 201.161 573.54 201.17 573.623 201.182V202.807C573.555 202.788 573.434 202.767 573.259 202.744C573.085 202.718 572.911 202.705 572.737 202.705C572.335 202.705 571.977 202.79 571.663 202.96C571.352 203.127 571.106 203.36 570.924 203.659C570.742 203.955 570.651 204.292 570.651 204.67V210H568.952ZM576.257 213.273C576.003 213.273 575.772 213.252 575.563 213.21C575.355 213.172 575.2 213.131 575.098 213.085L575.507 211.693C575.817 211.777 576.094 211.813 576.336 211.801C576.579 211.79 576.793 211.699 576.978 211.528C577.168 211.358 577.334 211.08 577.478 210.693L577.688 210.114L574.495 201.273H576.313L578.524 208.045H578.615L580.825 201.273H582.649L579.052 211.165C578.885 211.619 578.673 212.004 578.416 212.318C578.158 212.636 577.851 212.875 577.495 213.034C577.139 213.193 576.726 213.273 576.257 213.273ZM588.128 210V201.273H589.758V202.693H589.866C590.048 202.212 590.345 201.837 590.758 201.568C591.171 201.295 591.665 201.159 592.241 201.159C592.825 201.159 593.313 201.295 593.707 201.568C594.105 201.841 594.398 202.216 594.588 202.693H594.679C594.887 202.227 595.219 201.856 595.673 201.58C596.128 201.299 596.669 201.159 597.298 201.159C598.09 201.159 598.736 201.407 599.236 201.903C599.739 202.4 599.991 203.148 599.991 204.148V210H598.292V204.307C598.292 203.716 598.131 203.288 597.809 203.023C597.487 202.758 597.103 202.625 596.656 202.625C596.103 202.625 595.673 202.795 595.366 203.136C595.059 203.473 594.906 203.907 594.906 204.438V210H593.213V204.199C593.213 203.725 593.065 203.345 592.77 203.057C592.474 202.769 592.09 202.625 591.616 202.625C591.294 202.625 590.997 202.71 590.724 202.881C590.455 203.047 590.237 203.28 590.071 203.58C589.908 203.879 589.826 204.225 589.826 204.619V210H588.128ZM605.768 210.176C604.95 210.176 604.236 209.989 603.626 209.614C603.016 209.239 602.543 208.714 602.206 208.04C601.869 207.366 601.7 206.578 601.7 205.676C601.7 204.771 601.869 203.979 602.206 203.301C602.543 202.623 603.016 202.097 603.626 201.722C604.236 201.347 604.95 201.159 605.768 201.159C606.587 201.159 607.301 201.347 607.91 201.722C608.52 202.097 608.994 202.623 609.331 203.301C609.668 203.979 609.837 204.771 609.837 205.676C609.837 206.578 609.668 207.366 609.331 208.04C608.994 208.714 608.52 209.239 607.91 209.614C607.301 209.989 606.587 210.176 605.768 210.176ZM605.774 208.75C606.304 208.75 606.744 208.61 607.092 208.33C607.441 208.049 607.698 207.676 607.865 207.21C608.035 206.744 608.121 206.231 608.121 205.67C608.121 205.114 608.035 204.602 607.865 204.136C607.698 203.667 607.441 203.29 607.092 203.006C606.744 202.722 606.304 202.58 605.774 202.58C605.24 202.58 604.797 202.722 604.445 203.006C604.096 203.29 603.837 203.667 603.666 204.136C603.499 204.602 603.416 205.114 603.416 205.67C603.416 206.231 603.499 206.744 603.666 207.21C603.837 207.676 604.096 208.049 604.445 208.33C604.797 208.61 605.24 208.75 605.774 208.75ZM614.824 210.17C614.119 210.17 613.491 209.991 612.938 209.631C612.388 209.267 611.956 208.75 611.642 208.08C611.331 207.405 611.176 206.597 611.176 205.653C611.176 204.71 611.333 203.903 611.648 203.233C611.966 202.562 612.402 202.049 612.955 201.693C613.508 201.337 614.135 201.159 614.835 201.159C615.377 201.159 615.813 201.25 616.142 201.432C616.475 201.61 616.733 201.818 616.915 202.057C617.1 202.295 617.244 202.506 617.347 202.688H617.449V198.364H619.148V210H617.489V208.642H617.347C617.244 208.828 617.097 209.04 616.903 209.278C616.714 209.517 616.453 209.725 616.119 209.903C615.786 210.081 615.354 210.17 614.824 210.17ZM615.199 208.722C615.688 208.722 616.1 208.593 616.438 208.335C616.778 208.074 617.036 207.712 617.21 207.25C617.388 206.788 617.477 206.25 617.477 205.636C617.477 205.03 617.39 204.5 617.216 204.045C617.042 203.591 616.786 203.237 616.449 202.983C616.112 202.729 615.695 202.602 615.199 202.602C614.688 202.602 614.261 202.735 613.92 203C613.58 203.265 613.322 203.627 613.148 204.085C612.977 204.544 612.892 205.061 612.892 205.636C612.892 206.22 612.979 206.744 613.153 207.21C613.328 207.676 613.585 208.045 613.926 208.318C614.271 208.587 614.695 208.722 615.199 208.722ZM625.158 210.176C624.298 210.176 623.557 209.992 622.936 209.625C622.319 209.254 621.842 208.733 621.504 208.062C621.171 207.388 621.004 206.598 621.004 205.693C621.004 204.799 621.171 204.011 621.504 203.33C621.842 202.648 622.311 202.116 622.914 201.733C623.52 201.35 624.228 201.159 625.039 201.159C625.531 201.159 626.008 201.241 626.47 201.403C626.932 201.566 627.347 201.822 627.715 202.17C628.082 202.519 628.372 202.972 628.584 203.528C628.796 204.081 628.902 204.754 628.902 205.545V206.148H621.965V204.875H627.237C627.237 204.428 627.146 204.032 626.965 203.688C626.783 203.339 626.527 203.064 626.198 202.864C625.872 202.663 625.489 202.562 625.05 202.562C624.573 202.562 624.156 202.68 623.8 202.915C623.448 203.146 623.175 203.449 622.982 203.824C622.792 204.195 622.698 204.598 622.698 205.034V206.028C622.698 206.612 622.8 207.108 623.004 207.517C623.213 207.926 623.503 208.239 623.874 208.455C624.245 208.667 624.679 208.773 625.175 208.773C625.497 208.773 625.79 208.727 626.056 208.636C626.321 208.542 626.55 208.402 626.743 208.216C626.936 208.03 627.084 207.801 627.186 207.528L628.794 207.818C628.665 208.292 628.434 208.706 628.101 209.062C627.771 209.415 627.357 209.689 626.857 209.886C626.361 210.08 625.794 210.176 625.158 210.176Z" fill="black"/>
<rect x="283" y="118" width="166" height="35" rx="14" stroke="black" stroke-width="2" stroke-linecap="round"/>
<path d="M328.656 130.364V142H326.901V130.364H328.656ZM338.226 142.17C337.522 142.17 336.893 141.991 336.34 141.631C335.791 141.267 335.359 140.75 335.044 140.08C334.734 139.405 334.578 138.597 334.578 137.653C334.578 136.71 334.736 135.903 335.05 135.233C335.368 134.562 335.804 134.049 336.357 133.693C336.91 133.337 337.537 133.159 338.238 133.159C338.779 133.159 339.215 133.25 339.544 133.432C339.878 133.61 340.135 133.818 340.317 134.057C340.503 134.295 340.647 134.506 340.749 134.688H340.851V130.364H342.55V142H340.891V140.642H340.749C340.647 140.828 340.499 141.04 340.306 141.278C340.116 141.517 339.855 141.725 339.522 141.903C339.188 142.081 338.756 142.17 338.226 142.17ZM338.601 140.722C339.09 140.722 339.503 140.593 339.84 140.335C340.181 140.074 340.438 139.712 340.613 139.25C340.791 138.788 340.88 138.25 340.88 137.636C340.88 137.03 340.792 136.5 340.618 136.045C340.444 135.591 340.188 135.237 339.851 134.983C339.514 134.729 339.097 134.602 338.601 134.602C338.09 134.602 337.664 134.735 337.323 135C336.982 135.265 336.724 135.627 336.55 136.085C336.38 136.544 336.294 137.061 336.294 137.636C336.294 138.22 336.381 138.744 336.556 139.21C336.73 139.676 336.988 140.045 337.328 140.318C337.673 140.587 338.097 140.722 338.601 140.722ZM348.475 142.176C347.657 142.176 346.943 141.989 346.333 141.614C345.723 141.239 345.249 140.714 344.912 140.04C344.575 139.366 344.407 138.578 344.407 137.676C344.407 136.771 344.575 135.979 344.912 135.301C345.249 134.623 345.723 134.097 346.333 133.722C346.943 133.347 347.657 133.159 348.475 133.159C349.293 133.159 350.007 133.347 350.617 133.722C351.227 134.097 351.7 134.623 352.037 135.301C352.374 135.979 352.543 136.771 352.543 137.676C352.543 138.578 352.374 139.366 352.037 140.04C351.7 140.714 351.227 141.239 350.617 141.614C350.007 141.989 349.293 142.176 348.475 142.176ZM348.481 140.75C349.011 140.75 349.45 140.61 349.799 140.33C350.147 140.049 350.405 139.676 350.571 139.21C350.742 138.744 350.827 138.231 350.827 137.67C350.827 137.114 350.742 136.602 350.571 136.136C350.405 135.667 350.147 135.29 349.799 135.006C349.45 134.722 349.011 134.58 348.481 134.58C347.946 134.58 347.503 134.722 347.151 135.006C346.803 135.29 346.543 135.667 346.373 136.136C346.206 136.602 346.123 137.114 346.123 137.67C346.123 138.231 346.206 138.744 346.373 139.21C346.543 139.676 346.803 140.049 347.151 140.33C347.503 140.61 347.946 140.75 348.481 140.75ZM355.962 136.818V142H354.263V133.273H355.894V134.693H356.002C356.203 134.231 356.517 133.86 356.945 133.58C357.377 133.299 357.921 133.159 358.576 133.159C359.171 133.159 359.691 133.284 360.138 133.534C360.585 133.78 360.932 134.148 361.178 134.636C361.424 135.125 361.547 135.729 361.547 136.449V142H359.849V136.653C359.849 136.021 359.684 135.527 359.354 135.17C359.025 134.811 358.572 134.631 357.996 134.631C357.602 134.631 357.252 134.716 356.945 134.886C356.642 135.057 356.402 135.307 356.224 135.636C356.049 135.962 355.962 136.356 355.962 136.818ZM365.11 130.364V131.455C365.11 131.777 365.049 132.116 364.928 132.472C364.811 132.824 364.644 133.163 364.428 133.489C364.212 133.814 363.959 134.095 363.667 134.33L362.826 133.727C363.049 133.402 363.243 133.055 363.406 132.688C363.572 132.32 363.656 131.915 363.656 131.472V130.364H365.11ZM370.985 133.273V134.636H366.218V133.273H370.985ZM367.497 131.182H369.195V139.438C369.195 139.767 369.245 140.015 369.343 140.182C369.442 140.345 369.569 140.456 369.724 140.517C369.883 140.574 370.055 140.602 370.241 140.602C370.377 140.602 370.497 140.593 370.599 140.574C370.701 140.555 370.781 140.54 370.837 140.528L371.144 141.932C371.046 141.97 370.906 142.008 370.724 142.045C370.542 142.087 370.315 142.11 370.042 142.114C369.595 142.121 369.178 142.042 368.792 141.875C368.406 141.708 368.093 141.451 367.855 141.102C367.616 140.754 367.497 140.316 367.497 139.79V131.182ZM378.309 139.04L378.298 136.966H378.593L382.071 133.273H384.105L380.139 137.477H379.872L378.309 139.04ZM376.747 142V130.364H378.446V142H376.747ZM382.258 142L379.133 137.852L380.304 136.665L384.343 142H382.258ZM388.794 142.176C387.976 142.176 387.262 141.989 386.652 141.614C386.042 141.239 385.568 140.714 385.231 140.04C384.894 139.366 384.726 138.578 384.726 137.676C384.726 136.771 384.894 135.979 385.231 135.301C385.568 134.623 386.042 134.097 386.652 133.722C387.262 133.347 387.976 133.159 388.794 133.159C389.612 133.159 390.326 133.347 390.936 133.722C391.546 134.097 392.019 134.623 392.356 135.301C392.693 135.979 392.862 136.771 392.862 137.676C392.862 138.578 392.693 139.366 392.356 140.04C392.019 140.714 391.546 141.239 390.936 141.614C390.326 141.989 389.612 142.176 388.794 142.176ZM388.8 140.75C389.33 140.75 389.769 140.61 390.118 140.33C390.466 140.049 390.724 139.676 390.89 139.21C391.061 138.744 391.146 138.231 391.146 137.67C391.146 137.114 391.061 136.602 390.89 136.136C390.724 135.667 390.466 135.29 390.118 135.006C389.769 134.722 389.33 134.58 388.8 134.58C388.265 134.58 387.822 134.722 387.47 135.006C387.122 135.29 386.862 135.667 386.692 136.136C386.525 136.602 386.442 137.114 386.442 137.67C386.442 138.231 386.525 138.744 386.692 139.21C386.862 139.676 387.122 140.049 387.47 140.33C387.822 140.61 388.265 140.75 388.8 140.75ZM396.209 142L393.641 133.273H395.396L397.107 139.682H397.192L398.908 133.273H400.663L402.368 139.653H402.453L404.152 133.273H405.908L403.345 142H401.612L399.839 135.699H399.709L397.936 142H396.209Z" fill="black"/>
<rect x="283" y="186" width="166" height="35" rx="14" stroke="black" stroke-width="2" stroke-linecap="round"/>
<path d="M343.463 204.182C343.463 205.424 343.236 206.492 342.781 207.386C342.327 208.277 341.704 208.962 340.912 209.443C340.124 209.92 339.228 210.159 338.225 210.159C337.217 210.159 336.317 209.92 335.526 209.443C334.738 208.962 334.117 208.275 333.662 207.381C333.208 206.487 332.98 205.42 332.98 204.182C332.98 202.939 333.208 201.873 333.662 200.983C334.117 200.089 334.738 199.403 335.526 198.926C336.317 198.445 337.217 198.205 338.225 198.205C339.228 198.205 340.124 198.445 340.912 198.926C341.704 199.403 342.327 200.089 342.781 200.983C343.236 201.873 343.463 202.939 343.463 204.182ZM341.725 204.182C341.725 203.235 341.571 202.437 341.264 201.79C340.961 201.138 340.545 200.646 340.014 200.312C339.488 199.975 338.891 199.807 338.225 199.807C337.554 199.807 336.956 199.975 336.429 200.312C335.903 200.646 335.486 201.138 335.179 201.79C334.876 202.437 334.725 203.235 334.725 204.182C334.725 205.129 334.876 205.928 335.179 206.58C335.486 207.227 335.903 207.72 336.429 208.057C336.956 208.39 337.554 208.557 338.225 208.557C338.891 208.557 339.488 208.39 340.014 208.057C340.545 207.72 340.961 207.227 341.264 206.58C341.571 205.928 341.725 205.129 341.725 204.182ZM347.039 204.818V210H345.34V201.273H346.971V202.693H347.078C347.279 202.231 347.594 201.86 348.022 201.58C348.453 201.299 348.997 201.159 349.652 201.159C350.247 201.159 350.768 201.284 351.215 201.534C351.662 201.78 352.008 202.148 352.255 202.636C352.501 203.125 352.624 203.729 352.624 204.449V210H350.925V204.653C350.925 204.021 350.76 203.527 350.431 203.17C350.101 202.811 349.649 202.631 349.073 202.631C348.679 202.631 348.328 202.716 348.022 202.886C347.719 203.057 347.478 203.307 347.3 203.636C347.126 203.962 347.039 204.356 347.039 204.818ZM362.938 201.273V202.636H358.006V201.273H362.938ZM359.359 210V200.261C359.359 199.716 359.478 199.263 359.717 198.903C359.955 198.54 360.271 198.269 360.665 198.091C361.059 197.909 361.487 197.818 361.95 197.818C362.29 197.818 362.582 197.847 362.825 197.903C363.067 197.956 363.247 198.006 363.364 198.051L362.967 199.426C362.887 199.403 362.785 199.377 362.66 199.347C362.535 199.312 362.383 199.295 362.205 199.295C361.792 199.295 361.497 199.398 361.319 199.602C361.145 199.807 361.057 200.102 361.057 200.489V210H359.359ZM367.933 210.176C367.073 210.176 366.332 209.992 365.711 209.625C365.094 209.254 364.616 208.733 364.279 208.062C363.946 207.388 363.779 206.598 363.779 205.693C363.779 204.799 363.946 204.011 364.279 203.33C364.616 202.648 365.086 202.116 365.688 201.733C366.294 201.35 367.003 201.159 367.813 201.159C368.306 201.159 368.783 201.241 369.245 201.403C369.707 201.566 370.122 201.822 370.489 202.17C370.857 202.519 371.147 202.972 371.359 203.528C371.571 204.081 371.677 204.754 371.677 205.545V206.148H364.739V204.875H370.012C370.012 204.428 369.921 204.032 369.739 203.688C369.558 203.339 369.302 203.064 368.972 202.864C368.647 202.663 368.264 202.562 367.825 202.562C367.347 202.562 366.931 202.68 366.575 202.915C366.222 203.146 365.95 203.449 365.756 203.824C365.567 204.195 365.472 204.598 365.472 205.034V206.028C365.472 206.612 365.575 207.108 365.779 207.517C365.988 207.926 366.277 208.239 366.649 208.455C367.02 208.667 367.453 208.773 367.95 208.773C368.272 208.773 368.565 208.727 368.83 208.636C369.095 208.542 369.325 208.402 369.518 208.216C369.711 208.03 369.859 207.801 369.961 207.528L371.569 207.818C371.44 208.292 371.209 208.706 370.876 209.062C370.546 209.415 370.131 209.689 369.631 209.886C369.135 210.08 368.569 210.176 367.933 210.176ZM375.085 204.818V210H373.386V201.273H375.017V202.693H375.124C375.325 202.231 375.64 201.86 376.068 201.58C376.499 201.299 377.043 201.159 377.698 201.159C378.293 201.159 378.814 201.284 379.261 201.534C379.708 201.78 380.054 202.148 380.301 202.636C380.547 203.125 380.67 203.729 380.67 204.449V210H378.971V204.653C378.971 204.021 378.806 203.527 378.477 203.17C378.147 202.811 377.695 202.631 377.119 202.631C376.725 202.631 376.374 202.716 376.068 202.886C375.765 203.057 375.524 203.307 375.346 203.636C375.172 203.962 375.085 204.356 375.085 204.818ZM386.448 210.176C385.604 210.176 384.877 209.985 384.267 209.602C383.661 209.216 383.195 208.684 382.869 208.006C382.543 207.328 382.38 206.551 382.38 205.676C382.38 204.79 382.547 204.008 382.88 203.33C383.214 202.648 383.683 202.116 384.289 201.733C384.895 201.35 385.609 201.159 386.431 201.159C387.094 201.159 387.685 201.282 388.204 201.528C388.723 201.771 389.142 202.112 389.46 202.551C389.782 202.991 389.973 203.504 390.034 204.091H388.38C388.289 203.682 388.081 203.33 387.755 203.034C387.433 202.739 387.002 202.591 386.46 202.591C385.986 202.591 385.572 202.716 385.216 202.966C384.863 203.212 384.589 203.564 384.392 204.023C384.195 204.477 384.096 205.015 384.096 205.636C384.096 206.273 384.193 206.822 384.386 207.284C384.579 207.746 384.852 208.104 385.204 208.358C385.56 208.612 385.979 208.739 386.46 208.739C386.782 208.739 387.073 208.68 387.335 208.562C387.6 208.441 387.822 208.269 388 208.045C388.181 207.822 388.308 207.553 388.38 207.239H390.034C389.973 207.803 389.789 208.307 389.483 208.75C389.176 209.193 388.765 209.542 388.25 209.795C387.738 210.049 387.138 210.176 386.448 210.176ZM395.436 210.176C394.576 210.176 393.835 209.992 393.214 209.625C392.597 209.254 392.12 208.733 391.782 208.062C391.449 207.388 391.282 206.598 391.282 205.693C391.282 204.799 391.449 204.011 391.782 203.33C392.12 202.648 392.589 202.116 393.192 201.733C393.798 201.35 394.506 201.159 395.317 201.159C395.809 201.159 396.286 201.241 396.748 201.403C397.21 201.566 397.625 201.822 397.993 202.17C398.36 202.519 398.65 202.972 398.862 203.528C399.074 204.081 399.18 204.754 399.18 205.545V206.148H392.243V204.875H397.515C397.515 204.428 397.424 204.032 397.243 203.688C397.061 203.339 396.805 203.064 396.476 202.864C396.15 202.663 395.767 202.562 395.328 202.562C394.851 202.562 394.434 202.68 394.078 202.915C393.726 203.146 393.453 203.449 393.26 203.824C393.07 204.195 392.976 204.598 392.976 205.034V206.028C392.976 206.612 393.078 207.108 393.282 207.517C393.491 207.926 393.781 208.239 394.152 208.455C394.523 208.667 394.957 208.773 395.453 208.773C395.775 208.773 396.068 208.727 396.334 208.636C396.599 208.542 396.828 208.402 397.021 208.216C397.214 208.03 397.362 207.801 397.464 207.528L399.072 207.818C398.943 208.292 398.712 208.706 398.379 209.062C398.049 209.415 397.635 209.689 397.135 209.886C396.639 210.08 396.072 210.176 395.436 210.176Z" fill="black"/>
<rect x="25" y="108" width="193" height="55" rx="27.5" stroke="black" stroke-width="2" stroke-linecap="round"/>
<path d="M73.0881 128.455H75.2898V138.021C75.2898 139.039 75.0507 139.941 74.5725 140.727C74.0943 141.509 73.4219 142.124 72.5554 142.574C71.689 143.019 70.6733 143.241 69.5086 143.241C68.3485 143.241 67.3353 143.019 66.4688 142.574C65.6023 142.124 64.93 141.509 64.4517 140.727C63.9735 139.941 63.7344 139.039 63.7344 138.021V128.455H65.929V137.844C65.929 138.502 66.0734 139.087 66.3623 139.598C66.6558 140.109 67.0701 140.512 67.6052 140.805C68.1402 141.094 68.7747 141.239 69.5086 141.239C70.2472 141.239 70.884 141.094 71.4191 140.805C71.9588 140.512 72.3708 140.109 72.6549 139.598C72.9437 139.087 73.0881 138.502 73.0881 137.844V128.455ZM86.2648 134.754L84.3401 135.095C84.2596 134.849 84.1317 134.615 83.9565 134.392C83.7861 134.17 83.5541 133.987 83.2605 133.845C82.9669 133.703 82.6 133.632 82.1597 133.632C81.5583 133.632 81.0564 133.767 80.654 134.037C80.2515 134.302 80.0503 134.645 80.0503 135.067C80.0503 135.431 80.1852 135.725 80.4551 135.947C80.725 136.17 81.1606 136.352 81.7619 136.494L83.4949 136.892C84.4987 137.124 85.2468 137.482 85.7392 137.964C86.2316 138.447 86.4778 139.075 86.4778 139.847C86.4778 140.5 86.2884 141.082 85.9097 141.594C85.5356 142.1 85.0124 142.498 84.3401 142.787C83.6724 143.076 82.8983 143.22 82.0176 143.22C80.796 143.22 79.7993 142.96 79.0276 142.439C78.2558 141.913 77.7823 141.168 77.6071 140.202L79.6597 139.889C79.7875 140.424 80.0503 140.829 80.448 141.104C80.8457 141.374 81.3642 141.509 82.0034 141.509C82.6994 141.509 83.2558 141.364 83.6724 141.075C84.0891 140.782 84.2974 140.424 84.2974 140.003C84.2974 139.662 84.1696 139.375 83.9139 139.143C83.663 138.911 83.2771 138.736 82.7562 138.618L80.9097 138.213C79.8917 137.981 79.1388 137.612 78.6511 137.105C78.1682 136.598 77.9267 135.957 77.9267 135.18C77.9267 134.536 78.1066 133.973 78.4665 133.49C78.8263 133.007 79.3235 132.631 79.958 132.361C80.5924 132.086 81.3192 131.949 82.1384 131.949C83.3173 131.949 84.2454 132.205 84.9224 132.716C85.5995 133.223 86.047 133.902 86.2648 134.754ZM93.2944 143.22C92.2196 143.22 91.2939 142.991 90.5174 142.531C89.7456 142.067 89.1491 141.416 88.7277 140.578C88.311 139.735 88.1027 138.748 88.1027 137.616C88.1027 136.499 88.311 135.514 88.7277 134.662C89.1491 133.81 89.7362 133.144 90.489 132.666C91.2466 132.188 92.132 131.949 93.1453 131.949C93.7608 131.949 94.3574 132.051 94.935 132.254C95.5127 132.458 96.0312 132.777 96.4904 133.213C96.9497 133.649 97.3119 134.214 97.5771 134.911C97.8422 135.602 97.9748 136.442 97.9748 137.432V138.185H89.3029V136.594H95.8938C95.8938 136.035 95.7802 135.54 95.5529 135.109C95.3257 134.674 95.0061 134.33 94.5941 134.08C94.1869 133.829 93.7087 133.703 93.1595 133.703C92.5629 133.703 92.042 133.85 91.597 134.143C91.1566 134.432 90.8157 134.811 90.5742 135.28C90.3375 135.744 90.2191 136.248 90.2191 136.793V138.036C90.2191 138.765 90.347 139.385 90.6027 139.896C90.8631 140.408 91.2253 140.798 91.6893 141.068C92.1533 141.333 92.6955 141.466 93.3157 141.466C93.7182 141.466 94.0851 141.409 94.4166 141.295C94.748 141.177 95.0345 141.002 95.2759 140.77C95.5174 140.538 95.7021 140.251 95.8299 139.911L97.8399 140.273C97.6789 140.865 97.3901 141.383 96.9734 141.828C96.5615 142.268 96.043 142.612 95.418 142.858C94.7977 143.099 94.0899 143.22 93.2944 143.22ZM100.111 143V132.091H102.164V133.824H102.277C102.476 133.237 102.826 132.775 103.328 132.439C103.835 132.098 104.408 131.928 105.047 131.928C105.18 131.928 105.336 131.932 105.516 131.942C105.7 131.951 105.845 131.963 105.949 131.977V134.009C105.864 133.985 105.712 133.959 105.495 133.93C105.277 133.897 105.059 133.881 104.841 133.881C104.339 133.881 103.892 133.987 103.499 134.2C103.111 134.409 102.803 134.7 102.575 135.074C102.348 135.443 102.235 135.865 102.235 136.338V143H100.111ZM112.64 143V132.091H114.763V143H112.64ZM113.712 130.408C113.343 130.408 113.026 130.285 112.76 130.038C112.5 129.787 112.37 129.489 112.37 129.143C112.37 128.793 112.5 128.495 112.76 128.249C113.026 127.998 113.343 127.872 113.712 127.872C114.082 127.872 114.396 127.998 114.657 128.249C114.922 128.495 115.055 128.793 115.055 129.143C115.055 129.489 114.922 129.787 114.657 130.038C114.396 130.285 114.082 130.408 113.712 130.408ZM119.524 136.523V143H117.4V132.091H119.439V133.866H119.574C119.824 133.289 120.217 132.825 120.752 132.474C121.292 132.124 121.972 131.949 122.791 131.949C123.534 131.949 124.185 132.105 124.744 132.418C125.303 132.725 125.736 133.185 126.044 133.795C126.351 134.406 126.505 135.161 126.505 136.061V143H124.382V136.317C124.382 135.526 124.176 134.908 123.764 134.463C123.352 134.013 122.786 133.788 122.066 133.788C121.574 133.788 121.136 133.895 120.752 134.108C120.374 134.321 120.073 134.634 119.85 135.045C119.633 135.453 119.524 135.945 119.524 136.523ZM134.226 132.091V133.795H128.267V132.091H134.226ZM129.865 129.477H131.988V139.797C131.988 140.209 132.05 140.519 132.173 140.727C132.296 140.931 132.455 141.071 132.649 141.146C132.848 141.217 133.063 141.253 133.295 141.253C133.466 141.253 133.615 141.241 133.743 141.217C133.871 141.194 133.97 141.175 134.041 141.161L134.425 142.915C134.301 142.962 134.126 143.009 133.899 143.057C133.672 143.109 133.388 143.137 133.047 143.142C132.488 143.152 131.967 143.052 131.484 142.844C131.001 142.635 130.611 142.313 130.312 141.878C130.014 141.442 129.865 140.895 129.865 140.237V129.477ZM140.939 143.22C139.864 143.22 138.939 142.991 138.162 142.531C137.39 142.067 136.794 141.416 136.372 140.578C135.956 139.735 135.747 138.748 135.747 137.616C135.747 136.499 135.956 135.514 136.372 134.662C136.794 133.81 137.381 133.144 138.134 132.666C138.891 132.188 139.777 131.949 140.79 131.949C141.406 131.949 142.002 132.051 142.58 132.254C143.158 132.458 143.676 132.777 144.135 133.213C144.595 133.649 144.957 134.214 145.222 134.911C145.487 135.602 145.62 136.442 145.62 137.432V138.185H136.948V136.594H143.539C143.539 136.035 143.425 135.54 143.198 135.109C142.971 134.674 142.651 134.33 142.239 134.08C141.832 133.829 141.354 133.703 140.804 133.703C140.208 133.703 139.687 133.85 139.242 134.143C138.801 134.432 138.461 134.811 138.219 135.28C137.982 135.744 137.864 136.248 137.864 136.793V138.036C137.864 138.765 137.992 139.385 138.247 139.896C138.508 140.408 138.87 140.798 139.334 141.068C139.798 141.333 140.34 141.466 140.961 141.466C141.363 141.466 141.73 141.409 142.061 141.295C142.393 141.177 142.679 141.002 142.921 140.77C143.162 140.538 143.347 140.251 143.475 139.911L145.485 140.273C145.324 140.865 145.035 141.383 144.618 141.828C144.206 142.268 143.688 142.612 143.063 142.858C142.443 143.099 141.735 143.22 140.939 143.22ZM149.879 136.523V143H147.756V132.091H149.794V133.866H149.929C150.18 133.289 150.573 132.825 151.108 132.474C151.648 132.124 152.327 131.949 153.146 131.949C153.89 131.949 154.541 132.105 155.1 132.418C155.658 132.725 156.092 133.185 156.399 133.795C156.707 134.406 156.861 135.161 156.861 136.061V143H154.737V136.317C154.737 135.526 154.531 134.908 154.119 134.463C153.708 134.013 153.142 133.788 152.422 133.788C151.93 133.788 151.492 133.895 151.108 134.108C150.729 134.321 150.429 134.634 150.206 135.045C149.988 135.453 149.879 135.945 149.879 136.523ZM164.581 132.091V133.795H158.622V132.091H164.581ZM160.22 129.477H162.344V139.797C162.344 140.209 162.406 140.519 162.529 140.727C162.652 140.931 162.81 141.071 163.005 141.146C163.203 141.217 163.419 141.253 163.651 141.253C163.821 141.253 163.971 141.241 164.098 141.217C164.226 141.194 164.326 141.175 164.397 141.161L164.78 142.915C164.657 142.962 164.482 143.009 164.255 143.057C164.027 143.109 163.743 143.137 163.402 143.142C162.844 143.152 162.323 143.052 161.84 142.844C161.357 142.635 160.966 142.313 160.668 141.878C160.37 141.442 160.22 140.895 160.22 140.237V129.477ZM174.106 138.817V138.682C174.115 137.801 174.203 137.1 174.369 136.58C174.539 136.059 174.78 135.637 175.093 135.315C175.405 134.993 175.782 134.7 176.222 134.435C176.506 134.255 176.762 134.054 176.989 133.831C177.217 133.608 177.396 133.353 177.529 133.064C177.662 132.775 177.728 132.455 177.728 132.105C177.728 131.684 177.629 131.319 177.43 131.011C177.231 130.704 176.966 130.467 176.634 130.301C176.307 130.131 175.943 130.045 175.54 130.045C175.176 130.045 174.828 130.121 174.496 130.273C174.165 130.424 173.89 130.661 173.673 130.983C173.455 131.3 173.329 131.71 173.296 132.212H171.137C171.17 131.359 171.386 130.64 171.783 130.053C172.181 129.461 172.707 129.013 173.36 128.71C174.018 128.407 174.745 128.256 175.54 128.256C176.412 128.256 177.174 128.419 177.827 128.746C178.481 129.068 178.987 129.52 179.347 130.102C179.712 130.68 179.894 131.355 179.894 132.126C179.894 132.657 179.811 133.135 179.646 133.561C179.48 133.982 179.243 134.359 178.935 134.69C178.632 135.022 178.268 135.315 177.842 135.571C177.439 135.822 177.112 136.082 176.861 136.352C176.615 136.622 176.435 136.942 176.322 137.311C176.208 137.68 176.146 138.137 176.137 138.682V138.817H174.106ZM175.178 143.135C174.79 143.135 174.456 142.998 174.177 142.723C173.897 142.444 173.758 142.107 173.758 141.714C173.758 141.326 173.897 140.995 174.177 140.72C174.456 140.441 174.79 140.301 175.178 140.301C175.562 140.301 175.893 140.441 176.173 140.72C176.457 140.995 176.599 141.326 176.599 141.714C176.599 141.975 176.532 142.214 176.4 142.432C176.272 142.645 176.102 142.815 175.888 142.943C175.675 143.071 175.439 143.135 175.178 143.135Z" fill="black"/>
<path d="M220.497 134.5C219.944 134.5 219.497 134.948 219.497 135.5C219.497 136.052 219.944 136.5 220.497 136.5V135.5V134.5ZM279.207 68.2071C279.597 67.8166 279.597 67.1834 279.207 66.7929L272.843 60.4289C272.452 60.0384 271.819 60.0384 271.429 60.4289C271.038 60.8195 271.038 61.4526 271.429 61.8431L277.086 67.5L271.429 73.1569C271.038 73.5474 271.038 74.1805 271.429 74.5711C271.819 74.9616 272.452 74.9616 272.843 74.5711L279.207 68.2071ZM220.497 135.5V136.5H237.5V135.5V134.5H220.497V135.5ZM250.5 122.5H251.5V80.5H250.5H249.5V122.5H250.5ZM263.5 67.5V68.5H278.5V67.5V66.5H263.5V67.5ZM250.5 80.5H251.5C251.5 73.8726 256.872 68.5 263.5 68.5V67.5V66.5C255.768 66.5 249.5 72.768 249.5 80.5H250.5ZM237.5 135.5V136.5C245.232 136.5 251.5 130.232 251.5 122.5H250.5H249.5C249.5 129.127 244.127 134.5 237.5 134.5V135.5Z" fill="black"/>
<path d="M220.497 134.5C219.944 134.5 219.497 134.948 219.497 135.5C219.497 136.052 219.944 136.5 220.497 136.5V135.5V134.5ZM279.207 136.207C279.597 135.817 279.597 135.183 279.207 134.793L272.843 128.429C272.452 128.038 271.819 128.038 271.429 128.429C271.038 128.819 271.038 129.453 271.429 129.843L277.086 135.5L271.429 141.157C271.038 141.547 271.038 142.181 271.429 142.571C271.819 142.962 272.452 142.962 272.843 142.571L279.207 136.207ZM220.497 135.5V136.5H278.5V135.5V134.5H220.497V135.5Z" fill="black"/>
<path d="M453.5 134.5C452.948 134.5 452.5 134.948 452.5 135.5C452.5 136.052 452.948 136.5 453.5 136.5V135.5V134.5ZM473.207 136.207C473.598 135.817 473.598 135.183 473.207 134.793L466.843 128.429C466.453 128.038 465.819 128.038 465.429 128.429C465.038 128.819 465.038 129.453 465.429 129.843L471.086 135.5L465.429 141.157C465.038 141.547 465.038 142.181 465.429 142.571C465.819 142.962 466.453 142.962 466.843 142.571L473.207 136.207ZM453.5 135.5V136.5H472.5V135.5V134.5H453.5V135.5Z" fill="black"/>
<path d="M453.5 66.5C452.948 66.5 452.5 66.9477 452.5 67.5C452.5 68.0523 452.948 68.5 453.5 68.5V67.5V66.5ZM473.207 68.2071C473.598 67.8166 473.598 67.1834 473.207 66.7929L466.843 60.4289C466.453 60.0384 465.819 60.0384 465.429 60.4289C465.038 60.8195 465.038 61.4526 465.429 61.8431L471.086 67.5L465.429 73.1569C465.038 73.5474 465.038 74.1805 465.429 74.5711C465.819 74.9616 466.453 74.9616 466.843 74.5711L473.207 68.2071ZM453.5 67.5V68.5H472.5V67.5V66.5H453.5V67.5Z" fill="black"/>
<path d="M453.5 202.5C452.948 202.5 452.5 202.948 452.5 203.5C452.5 204.052 452.948 204.5 453.5 204.5V203.5V202.5ZM473.207 204.207C473.598 203.817 473.598 203.183 473.207 202.793L466.843 196.429C466.453 196.038 465.819 196.038 465.429 196.429C465.038 196.819 465.038 197.453 465.429 197.843L471.086 203.5L465.429 209.157C465.038 209.547 465.038 210.181 465.429 210.571C465.819 210.962 466.453 210.962 466.843 210.571L473.207 204.207ZM453.5 203.5V204.5H472.5V203.5V202.5H453.5V203.5Z" fill="black"/>
<path d="M220.497 134.5C219.944 134.5 219.497 134.948 219.497 135.5C219.497 136.052 219.944 136.5 220.497 136.5V135.5V134.5ZM279.207 204.207C279.597 203.817 279.597 203.183 279.207 202.793L272.843 196.429C272.452 196.038 271.819 196.038 271.429 196.429C271.038 196.819 271.038 197.453 271.429 197.843L277.086 203.5L271.429 209.157C271.038 209.547 271.038 210.181 271.429 210.571C271.819 210.962 272.452 210.962 272.843 210.571L279.207 204.207ZM220.497 135.5V136.5H237.5V135.5V134.5H220.497V135.5ZM250.5 148.5H249.5V190.5H250.5H251.5V148.5H250.5ZM263.5 203.5V204.5H278.5V203.5V202.5H263.5V203.5ZM250.5 190.5H249.5C249.5 198.232 255.768 204.5 263.5 204.5V203.5V202.5C256.872 202.5 251.5 197.127 251.5 190.5H250.5ZM237.5 135.5V136.5C244.127 136.5 249.5 141.873 249.5 148.5H250.5H251.5C251.5 140.768 245.232 134.5 237.5 134.5V135.5Z" fill="black"/>
</svg>
